{"glyphs":{"0":{"ha":444,"x_min":0,"x_max":0,"o":"m 13 251 b 186 0 13 92 69 0 b 360 251 301 0 360 96 l 360 686 b 186 936 360 842 303 936 b 13 686 68 936 13 846 z m 56 686 b 186 893 56 824 99 893 b 315 686 272 893 315 824 l 315 251 b 186 43 315 113 272 43 b 56 251 99 43 56 113 z "},"1":{"ha":269,"x_min":0,"x_max":0,"o":"m 44 724 l 151 861 l 151 0 l 196 0 l 196 936 l 153 936 l 11 751 z "},"2":{"ha":444,"x_min":0,"x_max":0,"o":"m 61 43 b 206 382 65 193 107 294 b 364 713 311 476 364 586 b 190 936 364 840 301 936 b 17 707 74 936 17 853 l 17 699 l 61 699 l 61 707 b 190 893 61 836 103 893 b 319 713 274 893 319 824 b 176 415 319 601 272 503 b 50 232 117 361 74 300 b 17 22 28 172 17 106 l 17 0 l 364 0 l 364 43 z "},"3":{"ha":421,"x_min":0,"x_max":0,"o":"m 14 247 b 188 0 14 90 72 0 b 361 242 293 0 361 93 b 288 429 361 340 321 397 b 235 467 272 444 256 457 b 288 506 253 476 271 489 b 361 693 321 538 361 597 b 319 861 361 764 347 819 b 188 936 289 911 244 936 b 14 688 72 936 14 844 l 14 679 l 58 679 l 58 688 b 188 893 58 825 101 893 b 282 839 228 893 260 875 b 317 693 306 801 317 753 b 260 539 317 622 292 572 b 151 489 226 506 185 489 l 111 489 l 111 446 l 151 446 b 257 399 179 446 219 433 b 317 242 285 372 317 325 b 308 161 317 213 314 185 b 188 43 297 111 267 43 b 58 247 104 43 58 104 l 58 256 l 14 256 z "},"4":{"ha":450,"x_min":0,"x_max":0,"o":"m 340 286 l 340 0 l 385 0 l 385 936 l 343 936 l 14 328 l 14 286 z m 340 329 l 65 329 l 340 838 z "},"5":{"ha":431,"x_min":0,"x_max":0,"o":"m 13 363 l 57 363 l 57 371 b 186 539 57 458 104 539 b 315 343 274 539 315 481 l 315 244 b 307 165 315 215 313 189 b 186 43 296 115 268 43 b 57 244 101 43 57 104 l 57 250 l 13 250 l 13 244 b 186 0 13 90 71 0 b 318 76 243 0 286 25 b 360 244 344 119 360 179 l 360 343 b 318 519 360 419 346 479 b 186 583 286 563 243 583 b 57 513 132 583 89 560 l 57 893 l 360 893 l 360 936 l 13 936 z "},"6":{"ha":433,"x_min":0,"x_max":0,"o":"m 13 219 b 186 0 13 81 76 0 b 318 78 243 0 288 26 b 360 250 344 122 360 183 l 360 338 b 186 582 360 494 304 582 b 57 511 132 582 89 558 l 57 629 b 79 799 57 679 61 744 b 186 893 97 853 131 893 b 315 722 269 893 315 832 l 315 701 l 360 701 l 360 722 b 186 936 360 851 301 936 b 75 883 154 936 110 926 b 13 629 40 840 13 763 z m 57 339 b 186 539 57 460 104 539 b 315 338 271 539 315 478 l 315 250 b 307 168 315 221 313 193 b 186 43 296 117 268 43 b 79 107 131 43 97 71 b 57 219 61 143 57 186 z "},"7":{"ha":522,"x_min":0,"x_max":0,"o":"m 471 894 l 471 936 l 8 936 l 8 893 l 424 893 l 50 0 l 97 0 z "},"8":{"ha":461,"x_min":0,"x_max":0,"o":"m 294 468 b 342 510 313 478 329 492 b 386 692 371 549 386 610 b 199 936 386 857 328 936 b 10 692 67 936 10 853 b 54 510 10 611 25 550 b 101 468 67 492 83 478 b 54 426 83 458 67 444 b 10 244 25 386 10 325 b 199 0 10 83 67 0 b 386 244 328 0 386 79 b 342 426 386 326 371 388 b 294 468 329 444 313 458 z m 89 536 b 54 692 65 568 54 619 b 199 893 54 836 99 893 b 342 692 299 893 342 836 b 199 490 342 547 299 490 b 89 536 149 490 113 506 z m 307 89 b 199 43 285 58 249 43 b 54 244 99 43 54 100 b 199 447 54 389 99 447 b 342 244 299 447 342 389 b 307 89 342 172 331 121 z "},"9":{"ha":428,"x_min":0,"x_max":0,"o":"m 11 226 b 185 0 11 89 69 0 b 358 306 303 0 358 115 l 358 719 b 185 936 358 854 300 936 b 11 689 79 936 11 839 l 11 586 b 185 339 11 425 69 339 b 314 411 240 339 285 365 l 314 306 b 290 131 314 246 310 181 b 185 43 271 79 239 43 b 56 226 101 43 56 106 l 56 249 l 11 249 z m 56 689 b 185 893 56 811 106 893 b 314 719 269 893 314 835 l 314 585 b 306 503 314 556 311 528 b 185 383 293 453 267 383 b 56 586 100 383 56 442 z "},"A":{"ha":544,"x_min":0,"x_max":0,"o":"m 433 0 l 478 0 l 264 936 l 229 936 l 88 329 l 88 325 l 14 0 l 58 0 l 122 286 l 369 286 z m 246 818 l 360 329 l 133 329 z "},"B":{"ha":467,"x_min":0,"x_max":0,"o":"m 178 0 b 385 244 321 0 385 82 b 336 428 385 326 368 388 b 285 468 321 446 304 458 b 336 510 306 479 321 492 b 385 692 368 550 385 611 b 178 936 385 854 321 936 l 24 936 l 24 0 z m 178 893 b 340 692 294 893 340 836 b 178 490 340 549 293 490 l 68 490 l 68 893 z m 178 447 b 340 244 293 447 340 389 b 178 43 340 100 294 43 l 68 43 l 68 447 z "},"C":{"ha":478,"x_min":0,"x_max":0,"o":"m 11 249 b 76 47 11 144 38 85 b 211 0 115 10 165 0 b 344 47 256 0 306 10 b 410 249 383 85 410 144 l 410 271 l 365 271 l 365 249 b 326 92 365 178 353 126 b 211 43 300 60 261 43 b 56 249 107 43 56 106 l 56 689 b 211 893 56 832 110 893 b 365 689 311 893 365 832 l 365 667 l 410 667 l 410 689 b 344 890 410 790 383 854 b 211 936 306 926 256 936 b 76 890 165 936 115 926 b 11 689 38 854 11 790 z "},"D":{"ha":483,"x_min":0,"x_max":0,"o":"m 176 0 b 393 253 325 0 393 86 l 393 683 b 176 936 393 850 325 936 l 17 936 l 17 0 z m 176 893 b 349 683 297 893 349 828 l 349 253 b 176 43 349 108 297 43 l 60 43 l 60 893 z "},"E":{"ha":421,"x_min":0,"x_max":0,"o":"m 14 936 l 14 0 l 350 0 l 350 43 l 57 43 l 57 447 l 308 447 l 308 490 l 57 490 l 57 893 l 350 893 l 350 936 z "},"F":{"ha":428,"x_min":0,"x_max":0,"o":"m 10 936 l 10 0 l 53 0 l 53 447 l 346 447 l 346 490 l 53 490 l 53 893 l 346 893 l 346 936 z "},"G":{"ha":489,"x_min":0,"x_max":0,"o":"m 14 247 b 214 0 14 88 81 0 b 414 247 347 0 414 86 l 414 414 l 167 414 l 167 369 l 369 369 l 369 247 b 214 43 369 108 318 43 b 57 247 108 43 57 108 l 57 690 b 111 860 57 781 81 832 b 214 893 142 888 181 893 b 317 860 247 893 286 888 b 369 690 347 832 369 781 l 369 668 l 414 668 l 414 690 b 214 936 414 851 347 936 b 14 690 81 936 14 851 z "},"H":{"ha":478,"x_min":0,"x_max":0,"o":"m 58 489 l 58 936 l 14 936 l 14 0 l 58 0 l 58 446 l 342 446 l 342 0 l 386 0 l 386 936 l 342 936 l 342 489 z "},"I":{"ha":151,"x_min":0,"x_max":0,"o":"m 61 936 l 18 936 l 18 0 l 61 0 z "},"J":{"ha":450,"x_min":0,"x_max":0,"o":"m 0 229 b 186 0 0 78 63 0 b 371 229 310 0 371 78 l 371 936 l 328 936 l 328 229 b 186 43 328 101 279 43 b 92 74 154 43 119 47 b 43 229 64 100 43 146 l 43 250 l 0 250 z "},"K":{"ha":469,"x_min":0,"x_max":0,"o":"m 56 404 l 56 936 l 11 936 l 11 0 l 56 0 l 56 325 l 133 443 l 386 0 l 436 0 l 158 489 l 436 936 l 383 936 z "},"L":{"ha":396,"x_min":0,"x_max":0,"o":"m 336 43 l 50 43 l 50 936 l 6 936 l 6 0 l 336 0 z "},"M":{"ha":546,"x_min":0,"x_max":0,"o":"m 249 0 l 410 744 l 410 0 l 454 0 l 454 936 l 407 936 l 232 143 l 56 936 l 10 936 l 10 0 l 53 0 l 53 744 l 215 0 z "},"N":{"ha":500,"x_min":0,"x_max":0,"o":"m 417 0 l 417 936 l 372 936 l 372 135 l 50 936 l 13 936 l 13 0 l 57 0 l 57 801 l 381 0 z "},"O":{"ha":494,"x_min":0,"x_max":0,"o":"m 14 249 b 79 47 14 144 40 85 b 213 0 118 10 168 0 b 347 47 258 0 308 10 b 413 249 386 85 413 144 l 413 689 b 213 936 413 850 346 936 b 14 689 81 936 14 849 z m 57 689 b 213 893 57 828 107 893 b 368 689 317 893 368 832 l 368 249 b 213 43 368 104 314 43 b 57 249 108 43 57 108 z "},"P":{"ha":472,"x_min":0,"x_max":0,"o":"m 183 447 b 401 692 333 447 401 529 b 183 936 401 854 333 936 l 15 936 l 15 0 l 58 0 l 58 447 z m 183 893 b 357 692 307 893 357 836 b 183 490 357 551 306 490 l 58 490 l 58 893 z "},"Q":{"ha":483,"x_min":0,"x_max":0,"o":"m 358 68 b 407 253 390 111 407 174 l 407 693 b 208 936 407 853 340 936 b 8 693 75 936 8 853 l 8 253 b 208 0 8 92 75 0 b 325 35 254 0 293 11 l 389 -43 l 446 -43 l 356 65 z m 297 68 b 208 43 274 51 243 43 b 53 253 104 43 53 113 l 53 693 b 208 893 53 831 104 893 b 363 693 313 893 363 833 l 363 253 b 328 100 363 185 351 135 l 290 144 l 235 144 z "},"R":{"ha":483,"x_min":0,"x_max":0,"o":"m 403 261 b 340 426 403 332 382 386 b 293 460 326 440 311 451 b 363 503 315 471 347 485 b 414 689 397 543 414 606 b 211 938 414 860 361 938 l 15 938 l 15 1 l 58 1 l 58 439 l 183 439 b 358 261 294 439 358 374 l 358 1 l 403 1 z m 58 893 l 211 893 b 371 689 335 893 371 835 b 183 483 371 544 307 483 l 58 483 z "},"S":{"ha":483,"x_min":0,"x_max":0,"o":"m 14 249 b 214 1 14 83 81 1 b 415 214 343 1 415 75 b 57 721 415 454 57 499 b 214 893 57 842 114 893 b 371 689 319 893 371 829 l 371 667 l 415 667 l 415 689 b 214 938 415 850 346 938 b 14 717 86 938 14 857 b 371 210 14 475 371 418 b 214 44 371 86 314 44 b 111 78 181 44 142 50 b 57 249 81 106 57 156 l 57 269 l 14 269 z "},"T":{"ha":488,"x_min":0,"x_max":0,"o":"m 7 893 l 189 893 l 189 1 l 232 1 l 232 893 l 415 893 l 415 938 l 7 938 z "},"U":{"ha":499,"x_min":0,"x_max":0,"o":"m 3 231 b 203 1 3 97 57 1 b 401 231 343 1 401 90 l 401 938 l 358 938 l 358 231 b 203 44 358 124 326 44 b 46 231 85 44 46 113 l 46 938 l 3 938 z "},"V":{"ha":535,"x_min":0,"x_max":0,"o":"m 58 938 l 14 938 l 235 1 l 268 1 l 489 938 l 443 938 l 251 113 z "},"W":{"ha":708,"x_min":0,"x_max":0,"o":"m 342 936 l 307 936 l 169 124 l 44 936 l 0 936 l 151 0 l 186 0 l 324 813 l 461 0 l 497 0 l 646 936 l 600 936 l 479 124 z "},"X":{"ha":544,"x_min":0,"x_max":0,"o":"m 242 417 l 439 0 l 488 0 l 265 468 l 485 936 l 436 936 l 242 519 l 43 936 l -6 936 l 217 468 l -6 0 l 43 0 z "},"Y":{"ha":494,"x_min":0,"x_max":0,"o":"m 36 936 l -14 936 l 192 463 l 192 0 l 235 0 l 235 463 l 439 936 l 389 936 l 213 532 z "},"Z":{"ha":501,"x_min":0,"x_max":0,"o":"m 414 936 l 0 936 l 0 893 l 364 893 l 7 43 l 7 0 l 407 0 l 407 43 l 56 43 l 414 896 z "},"a":{"ha":544,"x_min":0,"x_max":0,"o":"m 433 0 l 478 0 l 264 936 l 229 936 l 88 329 l 88 325 l 14 0 l 58 0 l 122 286 l 369 286 z m 246 818 l 360 329 l 133 329 z "},"b":{"ha":467,"x_min":0,"x_max":0,"o":"m 178 0 b 385 244 321 0 385 82 b 336 428 385 326 368 388 b 285 468 321 446 304 458 b 336 510 306 479 321 492 b 385 692 368 550 385 611 b 178 936 385 854 321 936 l 24 936 l 24 0 z m 178 893 b 340 692 294 893 340 836 b 178 490 340 549 293 490 l 68 490 l 68 893 z m 178 447 b 340 244 293 447 340 389 b 178 43 340 100 294 43 l 68 43 l 68 447 z "},"c":{"ha":478,"x_min":0,"x_max":0,"o":"m 11 249 b 76 47 11 144 38 85 b 211 0 115 10 165 0 b 344 47 256 0 306 10 b 410 249 383 85 410 144 l 410 271 l 365 271 l 365 249 b 326 92 365 178 353 126 b 211 43 300 60 261 43 b 56 249 107 43 56 106 l 56 689 b 211 893 56 832 110 893 b 365 689 311 893 365 832 l 365 667 l 410 667 l 410 689 b 344 890 410 790 383 854 b 211 936 306 926 256 936 b 76 890 165 936 115 926 b 11 689 38 854 11 790 z "},"d":{"ha":483,"x_min":0,"x_max":0,"o":"m 176 0 b 393 253 325 0 393 86 l 393 683 b 176 936 393 850 325 936 l 17 936 l 17 0 z m 176 893 b 349 683 297 893 349 828 l 349 253 b 176 43 349 108 297 43 l 60 43 l 60 893 z "},"e":{"ha":421,"x_min":0,"x_max":0,"o":"m 14 936 l 14 0 l 350 0 l 350 43 l 57 43 l 57 447 l 308 447 l 308 490 l 57 490 l 57 893 l 350 893 l 350 936 z "},"f":{"ha":428,"x_min":0,"x_max":0,"o":"m 10 936 l 10 0 l 53 0 l 53 447 l 346 447 l 346 490 l 53 490 l 53 893 l 346 893 l 346 936 z "},"g":{"ha":489,"x_min":0,"x_max":0,"o":"m 14 247 b 214 0 14 88 81 0 b 414 247 347 0 414 86 l 414 414 l 167 414 l 167 369 l 369 369 l 369 247 b 214 43 369 108 318 43 b 57 247 108 43 57 108 l 57 690 b 111 860 57 781 81 832 b 214 893 142 888 181 893 b 317 860 247 893 286 888 b 369 690 347 832 369 781 l 369 668 l 414 668 l 414 690 b 214 936 414 851 347 936 b 14 690 81 936 14 851 z "},"h":{"ha":478,"x_min":0,"x_max":0,"o":"m 58 489 l 58 936 l 14 936 l 14 0 l 58 0 l 58 446 l 342 446 l 342 0 l 386 0 l 386 936 l 342 936 l 342 489 z "},"i":{"ha":151,"x_min":0,"x_max":0,"o":"m 61 936 l 18 936 l 18 0 l 61 0 z "},"ı":{"ha":151,"x_min":0,"x_max":0,"o":"m 75 936 l 32 936 l 32 0 l 75 0 z "},"j":{"ha":450,"x_min":0,"x_max":0,"o":"m 0 229 b 186 0 0 78 63 0 b 371 229 310 0 371 78 l 371 936 l 328 936 l 328 229 b 186 43 328 101 279 43 b 92 74 154 43 119 47 b 43 229 64 100 43 146 l 43 250 l 0 250 z "},"k":{"ha":500,"x_min":0,"x_max":0,"o":"m 56 404 l 56 936 l 11 936 l 11 0 l 56 0 l 56 325 l 133 443 l 386 0 l 436 0 l 158 489 l 436 936 l 383 936 z "},"l":{"ha":396,"x_min":0,"x_max":0,"o":"m 336 43 l 50 43 l 50 936 l 6 936 l 6 0 l 336 0 z "},"m":{"ha":546,"x_min":0,"x_max":0,"o":"m 249 0 l 410 744 l 410 0 l 454 0 l 454 936 l 407 936 l 232 143 l 56 936 l 10 936 l 10 0 l 53 0 l 53 744 l 215 0 z "},"n":{"ha":500,"x_min":0,"x_max":0,"o":"m 417 0 l 417 936 l 372 936 l 372 135 l 50 936 l 13 936 l 13 0 l 57 0 l 57 801 l 381 0 z "},"o":{"ha":494,"x_min":0,"x_max":0,"o":"m 14 249 b 79 47 14 144 40 85 b 213 0 118 10 168 0 b 347 47 258 0 308 10 b 413 249 386 85 413 144 l 413 689 b 213 936 413 850 346 936 b 14 689 81 936 14 849 z m 57 689 b 213 893 57 828 107 893 b 368 689 317 893 368 832 l 368 249 b 213 43 368 104 314 43 b 57 249 108 43 57 108 z "},"p":{"ha":472,"x_min":0,"x_max":0,"o":"m 183 447 b 401 692 333 447 401 529 b 183 936 401 854 333 936 l 15 936 l 15 0 l 58 0 l 58 447 z m 183 893 b 357 692 307 893 357 836 b 183 490 357 551 306 490 l 58 490 l 58 893 z "},"q":{"ha":483,"x_min":0,"x_max":0,"o":"m 358 68 b 407 253 390 111 407 174 l 407 693 b 208 936 407 853 340 936 b 8 693 75 936 8 853 l 8 253 b 208 0 8 92 75 0 b 325 35 254 0 293 11 l 389 -43 l 446 -43 l 356 65 z m 297 68 b 208 43 274 51 243 43 b 53 253 104 43 53 113 l 53 693 b 208 893 53 831 104 893 b 363 693 313 893 363 833 l 363 253 b 328 100 363 185 351 135 l 290 144 l 235 144 z "},"r":{"ha":483,"x_min":0,"x_max":0,"o":"m 403 261 b 340 426 403 332 382 386 b 293 460 326 440 311 451 b 363 503 315 471 347 485 b 414 689 397 543 414 606 b 211 938 414 860 361 938 l 15 938 l 15 1 l 58 1 l 58 439 l 183 439 b 358 261 294 439 358 374 l 358 1 l 403 1 z m 58 893 l 211 893 b 371 689 335 893 371 835 b 183 483 371 544 307 483 l 58 483 z "},"s":{"ha":483,"x_min":0,"x_max":0,"o":"m 14 249 b 214 1 14 83 81 1 b 415 214 343 1 415 75 b 57 721 415 454 57 499 b 214 893 57 842 114 893 b 371 689 319 893 371 829 l 371 667 l 415 667 l 415 689 b 214 938 415 850 346 938 b 14 717 86 938 14 857 b 371 210 14 475 371 418 b 214 44 371 86 314 44 b 111 78 181 44 142 50 b 57 249 81 106 57 156 l 57 269 l 14 269 z "},"t":{"ha":488,"x_min":0,"x_max":0,"o":"m 7 893 l 189 893 l 189 1 l 232 1 l 232 893 l 415 893 l 415 938 l 7 938 z "},"u":{"ha":499,"x_min":0,"x_max":0,"o":"m 3 231 b 203 1 3 97 57 1 b 401 231 343 1 401 90 l 401 938 l 358 938 l 358 231 b 203 44 358 124 326 44 b 46 231 85 44 46 113 l 46 938 l 3 938 z "},"v":{"ha":535,"x_min":0,"x_max":0,"o":"m 58 938 l 14 938 l 235 1 l 268 1 l 489 938 l 443 938 l 251 113 z "},"w":{"ha":701,"x_min":0,"x_max":0,"o":"m 342 936 l 307 936 l 169 124 l 44 936 l 0 936 l 151 0 l 186 0 l 324 813 l 461 0 l 497 0 l 646 936 l 600 936 l 479 124 z "},"x":{"ha":544,"x_min":0,"x_max":0,"o":"m 242 417 l 439 0 l 488 0 l 265 468 l 485 936 l 436 936 l 242 519 l 43 936 l -6 936 l 217 468 l -6 0 l 43 0 z "},"y":{"ha":494,"x_min":0,"x_max":0,"o":"m 36 936 l -14 936 l 192 463 l 192 0 l 235 0 l 235 463 l 439 936 l 389 936 l 213 532 z "},"z":{"ha":501,"x_min":0,"x_max":0,"o":"m 414 936 l 0 936 l 0 893 l 364 893 l 7 43 l 7 0 l 407 0 l 407 43 l 56 43 l 414 896 z "},"*":{"ha":410,"x_min":0,"x_max":0,"o":"m 207 788 l 207 931 l 164 931 l 164 788 l 29 838 l 14 796 l 147 746 l 47 632 l 81 603 l 185 722 l 290 603 l 324 632 l 222 746 l 357 796 l 342 838 z "},"\\":{"ha":528,"x_min":0,"x_max":0,"o":"m 406 0 l 453 0 l 78 936 l 31 936 z "},"•":{"ha":146,"x_min":0,"x_max":0,"o":"m -29 526 b 25 472 -29 496 -6 472 b 79 526 56 472 79 496 b 25 581 79 557 56 581 b -29 526 -6 581 -29 557 z "},":":{"ha":157,"x_min":0,"x_max":0,"o":"m 63 714 l 19 714 l 19 608 l 63 608 z m 19 332 l 19 226 l 63 226 l 63 332 z "},",":{"ha":118,"x_min":0,"x_max":0,"o":"m 61 60 l 18 60 l 18 -56 l 61 -56 z "},"!":{"ha":129,"x_min":0,"x_max":0,"o":"m 56 938 l 13 938 l 13 138 l 56 138 z m 13 61 l 13 1 l 56 1 l 56 61 z "},"#":{"ha":753,"x_min":0,"x_max":0,"o":"m 407 314 l 347 0 l 392 0 l 451 314 l 636 314 l 636 358 l 461 358 l 503 576 l 679 576 l 679 621 l 513 621 l 572 936 l 528 936 l 468 621 l 271 621 l 333 936 l 288 936 l 226 621 l 15 621 l 15 576 l 218 576 l 175 358 l -28 358 l -28 314 l 167 314 l 106 0 l 150 0 l 211 314 z m 219 358 l 263 576 l 458 576 l 415 358 z "},".":{"ha":113,"x_min":0,"x_max":0,"o":"m 61 60 l 17 60 l 17 0 l 61 0 z "},"?":{"ha":421,"x_min":0,"x_max":0,"o":"m 178 165 b 326 554 178 358 240 413 b 367 704 349 590 367 638 b 325 867 367 769 353 824 b 193 938 292 914 247 938 b 19 697 78 938 19 847 l 19 676 l 64 676 l 64 697 b 99 847 64 765 75 815 b 193 894 119 879 150 894 b 289 842 233 894 265 876 b 322 704 311 808 322 760 b 290 578 322 647 308 608 b 147 293 233 481 169 425 b 135 165 136 235 135 221 l 135 139 l 178 139 z m 178 61 l 133 61 l 133 1 l 178 1 z "},"\"":{"ha":225,"x_min":0,"x_max":0,"o":"m 14 936 l 14 814 l 57 814 l 57 936 z m 140 936 l 96 936 l 96 814 l 140 814 z "},"'":{"ha":113,"x_min":0,"x_max":0,"o":"m 57 936 l 14 936 l 14 814 l 57 814 z "},";":{"ha":135,"x_min":0,"x_max":0,"o":"m 63 714 l 18 714 l 18 608 l 63 608 z m 18 332 l 18 176 l 63 176 l 63 332 z "},"/":{"ha":533,"x_min":0,"x_max":0,"o":"m 76 0 l 451 936 l 404 936 l 29 0 z "},"_":{"ha":640,"x_min":0,"x_max":0,"o":"m 589 0 l 28 0 l 28 -43 l 589 -43 z "},"(":{"ha":231,"x_min":0,"x_max":0,"o":"m 165 40 b 147 57 158 44 153 50 b 110 119 136 69 125 88 b 53 465 83 176 53 283 b 110 814 53 649 83 754 b 131 853 117 829 124 843 b 167 896 143 874 156 886 l 142 933 l 118 913 b 74 840 104 899 89 875 b 10 465 42 771 10 654 b 74 96 10 308 31 185 b 119 25 89 61 104 38 l 143 3 z "},")":{"ha":219,"x_min":0,"x_max":0,"o":"m 65 25 b 111 97 79 38 94 63 b 175 471 143 167 175 282 b 111 840 175 629 154 753 b 67 913 96 875 81 900 l 42 933 l 19 896 l 18 896 b 38 879 19 896 25 890 b 75 817 49 868 61 847 b 113 692 88 789 101 747 b 131 471 124 635 131 561 b 74 122 131 288 100 179 b 53 83 67 107 60 93 b 18 40 39 63 28 50 l 42 3 z "},"—":{"ha":415,"x_min":0,"x_max":0,"o":"m 357 489 l 18 489 l 18 446 l 357 446 z "},"–":{"ha":415,"x_min":0,"x_max":0,"o":"m 357 489 l 18 489 l 18 446 l 357 446 z "},"-":{"ha":415,"x_min":0,"x_max":0,"o":"m 357 489 l 18 489 l 18 446 l 357 446 z "},"“":{"ha":208,"x_min":0,"x_max":0,"o":"m 14 936 l 14 814 l 57 814 l 57 936 z m 140 936 l 96 936 l 96 814 l 140 814 z "},"”":{"ha":208,"x_min":0,"x_max":0,"o":"m 14 936 l 14 814 l 57 814 l 57 936 z m 140 936 l 96 936 l 96 814 l 140 814 z "},"‘":{"ha":113,"x_min":0,"x_max":0,"o":"m 57 936 l 14 936 l 14 814 l 57 814 z "},"’":{"ha":113,"x_min":0,"x_max":0,"o":"m 57 936 l 14 936 l 14 814 l 57 814 z "}," ":{"ha":292,"x_min":0,"x_max":0,"o":""},"\r":{"ha":292,"x_min":0,"x_max":0,"o":""},"$":{"ha":444,"x_min":0,"x_max":0,"o":"m 221 68 b 331 129 267 74 304 94 b 372 275 358 167 372 215 b 321 413 372 340 349 383 b 231 471 292 442 254 460 l 226 474 b 221 475 225 474 222 474 l 221 824 b 294 788 247 819 274 813 b 329 654 315 763 329 721 l 329 632 l 372 632 l 372 654 b 325 819 372 733 353 786 b 221 867 296 851 258 863 l 221 936 l 178 936 l 178 867 b 26 654 83 856 26 776 b 79 515 26 589 50 546 b 167 454 107 485 143 467 b 178 449 171 453 174 450 l 178 111 b 104 149 151 113 125 124 b 69 281 83 174 69 214 l 69 303 l 26 303 l 26 281 b 75 117 26 199 46 149 b 178 68 103 85 140 72 l 178 0 l 221 0 z m 178 499 b 106 550 154 510 126 526 b 69 654 85 572 69 606 b 94 763 69 693 76 731 b 178 822 111 794 139 817 z m 221 426 b 293 379 243 415 271 401 b 329 275 314 356 329 324 b 221 113 329 181 289 122 z "},"=":{"ha":433,"x_min":0,"x_max":0,"o":"m 18 571 l 357 571 l 357 614 l 18 614 z m 18 279 l 357 279 l 357 322 l 18 322 z "},"%":{"ha":624,"x_min":0,"x_max":0,"o":"m 121 0 l 496 936 l 449 936 l 74 0 z m 228 744 b 114 872 228 821 181 872 b 0 744 47 872 0 821 l 0 625 b 114 497 0 549 47 497 b 228 625 181 497 228 549 z m 43 744 b 114 828 43 783 63 828 b 183 744 165 828 183 783 l 183 625 b 114 542 183 586 165 542 b 43 625 63 542 43 586 z m 567 310 b 454 436 567 386 521 436 b 340 310 386 436 340 386 l 340 190 b 454 63 340 114 386 63 b 567 190 521 63 567 114 z m 524 190 b 454 106 524 151 506 106 b 383 190 400 106 383 151 l 383 310 b 399 365 383 328 388 349 b 454 393 410 382 428 393 b 508 365 481 393 497 382 b 524 310 519 349 524 328 z "},"+":{"ha":533,"x_min":0,"x_max":0,"o":"m 264 689 l 219 689 l 219 486 l 17 486 l 17 442 l 219 442 l 219 239 l 264 239 l 264 442 l 467 442 l 467 486 l 264 486 z "},"&":{"ha":596,"x_min":0,"x_max":0,"o":"m 240 499 b 222 936 385 601 429 936 b 182 510 31 936 83 674 b 42 374 135 471 81 429 b 0 231 17 338 0 292 b 210 0 0 99 81 0 b 422 100 304 0 375 33 l 481 0 l 531 0 l 447 143 b 449 144 447 144 447 144 l 449 146 b 492 400 488 229 492 329 l 492 414 l 447 414 l 447 400 b 419 190 447 340 446 261 z m 217 535 b 222 893 174 594 67 893 b 247 565 367 893 332 675 b 217 535 236 551 217 535 z m 397 142 b 210 43 358 76 296 43 b 83 101 153 43 111 67 b 43 231 56 136 43 185 b 78 350 43 282 56 319 b 204 469 110 397 168 442 z "},"@":{"ha":899,"x_min":0,"x_max":0,"o":"m 754 142 b 483 51 678 86 582 57 b 210 114 385 46 288 65 b 60 486 86 190 33 321 b 183 732 76 593 124 675 b 379 836 243 789 313 821 b 583 824 451 851 522 846 b 733 706 644 801 699 761 b 778 557 757 667 772 613 b 756 394 782 500 774 443 b 674 307 740 357 710 328 b 567 274 638 285 596 274 b 544 276 560 274 551 275 b 521 315 525 282 517 294 l 526 353 b 536 411 529 369 532 389 b 547 479 539 432 543 456 b 558 543 551 503 554 524 b 567 592 561 563 564 579 l 569 611 l 572 633 l 529 640 l 526 619 l 524 608 b 513 618 522 611 518 614 b 406 643 481 640 432 643 b 235 467 304 643 247 579 b 371 296 218 349 269 296 b 476 318 414 296 449 297 b 532 235 472 275 493 244 b 681 261 572 224 629 233 b 796 378 731 288 775 328 b 821 561 818 433 825 499 b 769 729 815 622 799 683 b 601 864 729 792 671 838 b 369 879 532 890 451 896 b 144 757 282 861 206 819 b 17 493 78 686 33 599 b 186 76 -15 308 47 164 b 456 7 263 31 356 7 l 486 7 b 779 106 597 13 700 49 l 797 119 l 771 154 z m 371 340 b 278 461 297 340 267 365 b 317 567 283 510 296 543 b 406 599 338 588 367 599 b 456 594 424 599 440 597 b 507 560 483 589 496 581 b 507 504 511 549 511 531 b 458 360 492 425 479 381 b 371 340 440 343 417 340 z "},"|":{"ha":124,"x_min":0,"x_max":0,"o":"m 61 936 l 18 936 l 18 0 l 61 0 z "},"`":{"ha":239,"x_min":0,"x_max":0,"o":"m 171 1006 l 238 1006 l 71 1121 l 4 1121 z "},"⁄":{"ha":292,"x_min":0,"x_max":0,"o":"m -18 0 l 357 936 l 310 936 l -65 0 z "},"¿":{"ha":421,"x_min":0,"x_max":0,"o":"m 208 774 b 60 385 208 581 146 526 b 19 235 38 349 19 301 b 61 72 19 169 33 115 b 193 1 94 25 139 1 b 367 242 308 1 367 92 l 367 263 l 322 263 l 322 242 b 288 92 322 174 311 124 b 193 44 267 60 236 44 b 97 97 153 44 121 63 b 64 235 75 131 64 179 b 96 361 64 292 78 331 b 239 646 153 458 217 514 b 251 774 250 704 251 718 l 251 800 l 208 800 z m 208 878 l 253 878 l 253 938 l 208 938 z "},"¡":{"ha":129,"x_min":0,"x_max":0,"o":"m 56 801 l 13 801 l 13 1 l 56 1 z m 56 878 l 56 938 l 13 938 l 13 878 z "},"´":{"ha":274,"x_min":0,"x_max":0,"o":"m 251 1121 l 185 1121 l 18 1006 l 85 1006 z "},"Á":{"ha":544,"x_min":0,"x_max":0,"o":"m 433 0 l 478 0 l 264 936 l 229 936 l 88 329 l 88 325 l 14 0 l 58 0 l 122 286 l 369 286 z m 246 818 l 360 329 l 133 329 z m 360 1118 l 293 1118 l 126 1003 l 193 1003 z "},"ˆ":{"ha":260,"x_min":0,"x_max":0,"o":"m 4 1006 l 57 1006 l 126 1088 l 196 1006 l 249 1006 l 154 1121 l 99 1121 z "},"ˇ":{"ha":253,"x_min":0,"x_max":0,"o":"m 126 1038 l 57 1121 l 4 1121 l 99 1006 l 154 1006 l 249 1121 l 196 1121 z "},"˚":{"ha":125,"x_min":0,"x_max":0,"o":"m 1 1061 b 63 1000 1 1028 29 1000 b 124 1061 96 1000 124 1028 b 63 1122 124 1094 96 1122 b 1 1061 29 1122 1 1094 z m 39 1061 b 61 1083 39 1074 49 1083 b 83 1061 74 1083 83 1074 b 61 1039 83 1049 74 1039 b 39 1061 49 1039 39 1049 z "},"º":{"ha":125,"x_min":0,"x_max":0,"o":"m 1 1061 b 63 1000 1 1028 29 1000 b 124 1061 96 1000 124 1028 b 63 1122 124 1094 96 1122 b 1 1061 29 1122 1 1094 z m 39 1061 b 61 1083 39 1074 49 1083 b 83 1061 74 1083 83 1074 b 61 1039 83 1049 74 1039 b 39 1061 49 1039 39 1049 z "},"°":{"ha":128,"x_min":0,"x_max":0,"o":"m 1 1061 b 63 1000 1 1028 29 1000 b 124 1061 96 1000 124 1028 b 63 1122 124 1094 96 1122 b 1 1061 29 1122 1 1094 z m 39 1061 b 61 1083 39 1074 49 1083 b 83 1061 74 1083 83 1074 b 61 1039 83 1049 74 1039 b 39 1061 49 1039 39 1049 z "},"¨":{"ha":249,"x_min":0,"x_max":0,"o":"m 46 1065 l 1 1065 l 1 1006 l 46 1006 z m 250 1065 l 206 1065 l 206 1006 l 250 1006 z "},"·":{"ha":46,"x_min":0,"x_max":0,"o":"m 46 568 l 1 568 l 1 508 l 46 508 z "},"˜":{"ha":374,"x_min":0,"x_max":0,"o":"m 58 1003 b 182 1013 99 1063 151 1044 b 378 1058 219 974 331 954 l 321 1058 b 194 1058 299 1003 229 1021 b 1 1003 156 1100 57 1113 z "},"~":{"ha":378,"x_min":0,"x_max":0,"o":"m 58 1003 b 182 1013 99 1063 151 1044 b 378 1058 219 974 331 954 l 321 1058 b 194 1058 299 1003 229 1021 b 1 1003 156 1100 57 1113 z "},"¸":{"ha":210,"x_min":0,"x_max":0,"o":"m 99 10 l 58 10 l 58 -104 b 168 -143 122 -104 179 -101 b 7 -168 151 -204 7 -168 l 7 -201 b 211 -137 7 -217 211 -251 b 99 -65 211 -57 99 -65 z "},"á":{"ha":544,"x_min":0,"x_max":0,"o":"m 433 0 l 478 0 l 264 936 l 229 936 l 88 329 l 88 325 l 14 0 l 58 0 l 122 286 l 369 286 z m 246 818 l 360 329 l 133 329 z m 360 1118 l 293 1118 l 126 1003 l 193 1003 z "},"À":{"ha":544,"x_min":0,"x_max":0,"o":"m 433 0 l 478 0 l 264 936 l 229 936 l 88 329 l 88 325 l 14 0 l 58 0 l 122 286 l 369 286 z m 246 818 l 360 329 l 133 329 z m 293 1006 l 360 1006 l 193 1121 l 126 1121 z "},"à":{"ha":544,"x_min":0,"x_max":0,"o":"m 433 0 l 478 0 l 264 936 l 229 936 l 88 329 l 88 325 l 14 0 l 58 0 l 122 286 l 369 286 z m 246 818 l 360 329 l 133 329 z m 293 1006 l 360 1006 l 193 1121 l 126 1121 z "},"Â":{"ha":544,"x_min":0,"x_max":0,"o":"m 433 0 l 478 0 l 264 936 l 229 936 l 88 329 l 88 325 l 14 0 l 58 0 l 122 286 l 369 286 z m 246 818 l 360 329 l 133 329 z m 125 1006 l 178 1006 l 247 1088 l 317 1006 l 369 1006 l 275 1121 l 219 1121 z "},"â":{"ha":544,"x_min":0,"x_max":0,"o":"m 433 0 l 478 0 l 264 936 l 229 936 l 88 329 l 88 325 l 14 0 l 58 0 l 122 286 l 369 286 z m 246 818 l 360 329 l 133 329 z m 125 1006 l 178 1006 l 247 1088 l 317 1006 l 369 1006 l 275 1121 l 219 1121 z "},"Ã":{"ha":544,"x_min":0,"x_max":0,"o":"m 433 0 l 478 0 l 264 936 l 229 936 l 88 329 l 88 325 l 14 0 l 58 0 l 122 286 l 369 286 z m 246 818 l 360 329 l 133 329 z m 119 1003 b 243 1013 160 1063 213 1044 b 439 1058 281 974 392 954 l 382 1058 b 256 1058 360 1003 290 1021 b 63 1003 217 1100 118 1113 z "},"ã":{"ha":544,"x_min":0,"x_max":0,"o":"m 433 0 l 478 0 l 264 936 l 229 936 l 88 329 l 88 325 l 14 0 l 58 0 l 122 286 l 369 286 z m 246 818 l 360 329 l 133 329 z m 119 1003 b 243 1013 160 1063 213 1044 b 439 1058 281 974 392 954 l 382 1058 b 256 1058 360 1003 290 1021 b 63 1003 217 1100 118 1113 z "},"Ä":{"ha":544,"x_min":0,"x_max":0,"o":"m 433 0 l 478 0 l 264 936 l 229 936 l 88 329 l 88 325 l 14 0 l 58 0 l 122 286 l 369 286 z m 246 818 l 360 329 l 133 329 z m 167 1065 l 122 1065 l 122 1006 l 167 1006 z m 371 1065 l 326 1065 l 326 1006 l 371 1006 z "},"ä":{"ha":544,"x_min":0,"x_max":0,"o":"m 433 0 l 478 0 l 264 936 l 229 936 l 88 329 l 88 325 l 14 0 l 58 0 l 122 286 l 369 286 z m 246 818 l 360 329 l 133 329 z m 167 1065 l 122 1065 l 122 1006 l 167 1006 z m 371 1065 l 326 1065 l 326 1006 l 371 1006 z "},"Å":{"ha":544,"x_min":0,"x_max":0,"o":"m 369 286 l 122 286 l 58 0 l 14 0 l 88 325 l 88 329 l 229 936 l 264 936 l 478 0 l 433 0 z m 133 329 l 360 329 l 246 818 z m 186 1061 b 247 1000 186 1028 214 1000 b 308 1061 281 1000 308 1028 b 247 1122 308 1094 281 1122 b 186 1061 214 1122 186 1094 z m 224 1061 b 246 1083 224 1074 233 1083 b 268 1061 258 1083 268 1074 b 246 1039 268 1049 258 1039 b 224 1061 233 1039 224 1049 z "},"å":{"ha":544,"x_min":0,"x_max":0,"o":"m 369 286 l 122 286 l 58 0 l 14 0 l 88 325 l 88 329 l 229 936 l 264 936 l 478 0 l 433 0 z m 133 329 l 360 329 l 246 818 z m 186 1061 b 247 1000 186 1028 214 1000 b 308 1061 281 1000 308 1028 b 247 1122 308 1094 281 1122 b 186 1061 214 1122 186 1094 z m 224 1061 b 246 1083 224 1074 233 1083 b 268 1061 258 1083 268 1074 b 246 1039 268 1049 258 1039 b 224 1061 233 1039 224 1049 z "},"Æ":{"ha":854,"x_min":0,"x_max":0,"o":"m 431 936 l 7 0 l 54 0 l 188 286 l 433 286 l 433 0 l 769 0 l 769 43 l 476 43 l 476 447 l 769 447 l 769 490 l 476 490 l 476 893 l 769 893 l 769 936 z m 207 329 l 433 829 l 433 329 z "},"æ":{"ha":854,"x_min":0,"x_max":0,"o":"m 431 936 l 7 0 l 54 0 l 188 286 l 433 286 l 433 0 l 769 0 l 769 43 l 476 43 l 476 447 l 769 447 l 769 490 l 476 490 l 476 893 l 769 893 l 769 936 z m 207 329 l 433 829 l 433 329 z "},"Ç":{"ha":478,"x_min":0,"x_max":0,"o":"m 11 249 b 76 47 11 144 38 85 b 211 0 115 10 165 0 b 344 47 256 0 306 10 b 410 249 383 85 410 144 l 410 271 l 365 271 l 365 249 b 326 92 365 178 353 126 b 211 43 300 60 261 43 b 56 249 107 43 56 106 l 56 689 b 211 893 56 832 110 893 b 365 689 311 893 365 832 l 365 667 l 410 667 l 410 689 b 344 890 410 790 383 854 b 211 936 306 926 256 936 b 76 890 165 936 115 926 b 11 689 38 854 11 790 z m 228 10 l 188 10 l 188 -104 b 297 -143 251 -104 308 -101 b 136 -168 281 -204 136 -168 l 136 -201 b 340 -137 136 -217 340 -251 b 228 -65 340 -57 228 -65 z "},"ç":{"ha":478,"x_min":0,"x_max":0,"o":"m 11 249 b 76 47 11 144 38 85 b 211 0 115 10 165 0 b 344 47 256 0 306 10 b 410 249 383 85 410 144 l 410 271 l 365 271 l 365 249 b 326 92 365 178 353 126 b 211 43 300 60 261 43 b 56 249 107 43 56 106 l 56 689 b 211 893 56 832 110 893 b 365 689 311 893 365 832 l 365 667 l 410 667 l 410 689 b 344 890 410 790 383 854 b 211 936 306 926 256 936 b 76 890 165 936 115 926 b 11 689 38 854 11 790 z m 228 10 l 188 10 l 188 -104 b 297 -143 251 -104 308 -101 b 136 -168 281 -204 136 -168 l 136 -201 b 340 -137 136 -217 340 -251 b 228 -65 340 -57 228 -65 z "},"È":{"ha":421,"x_min":0,"x_max":0,"o":"m 14 936 l 14 0 l 350 0 l 350 43 l 57 43 l 57 447 l 308 447 l 308 490 l 57 490 l 57 893 l 350 893 l 350 936 z m 235 1006 l 301 1006 l 135 1121 l 68 1121 z "},"è":{"ha":421,"x_min":0,"x_max":0,"o":"m 14 936 l 14 0 l 350 0 l 350 43 l 57 43 l 57 447 l 308 447 l 308 490 l 57 490 l 57 893 l 350 893 l 350 936 z m 235 1006 l 301 1006 l 135 1121 l 68 1121 z "},"É":{"ha":421,"x_min":0,"x_max":0,"o":"m 14 936 l 14 0 l 350 0 l 350 43 l 57 43 l 57 447 l 308 447 l 308 490 l 57 490 l 57 893 l 350 893 l 350 936 z m 301 1121 l 235 1121 l 68 1006 l 135 1006 z "},"é":{"ha":421,"x_min":0,"x_max":0,"o":"m 14 936 l 14 0 l 350 0 l 350 43 l 57 43 l 57 447 l 308 447 l 308 490 l 57 490 l 57 893 l 350 893 l 350 936 z m 301 1121 l 235 1121 l 68 1006 l 135 1006 z "},"Ê":{"ha":421,"x_min":0,"x_max":0,"o":"m 14 936 l 14 0 l 350 0 l 350 43 l 57 43 l 57 447 l 308 447 l 308 490 l 57 490 l 57 893 l 350 893 l 350 936 z m 56 1006 l 108 1006 l 178 1088 l 247 1006 l 300 1006 l 206 1121 l 150 1121 z "},"ê":{"ha":421,"x_min":0,"x_max":0,"o":"m 14 936 l 14 0 l 350 0 l 350 43 l 57 43 l 57 447 l 308 447 l 308 490 l 57 490 l 57 893 l 350 893 l 350 936 z m 56 1006 l 108 1006 l 178 1088 l 247 1006 l 300 1006 l 206 1121 l 150 1121 z "},"Ë":{"ha":421,"x_min":0,"x_max":0,"o":"m 14 936 l 14 0 l 350 0 l 350 43 l 57 43 l 57 447 l 308 447 l 308 490 l 57 490 l 57 893 l 350 893 l 350 936 z m 106 1065 l 61 1065 l 61 1006 l 106 1006 z m 310 1065 l 265 1065 l 265 1006 l 310 1006 z "},"ë":{"ha":421,"x_min":0,"x_max":0,"o":"m 14 936 l 14 0 l 350 0 l 350 43 l 57 43 l 57 447 l 308 447 l 308 490 l 57 490 l 57 893 l 350 893 l 350 936 z m 106 1065 l 61 1065 l 61 1006 l 106 1006 z m 310 1065 l 265 1065 l 265 1006 l 310 1006 z "},"Ì":{"ha":151,"x_min":0,"x_max":0,"o":"m 61 936 l 18 936 l 18 0 l 61 0 z m 106 1006 l 172 1006 l 6 1121 l -61 1121 z "},"ì":{"ha":151,"x_min":0,"x_max":0,"o":"m 61 936 l 18 936 l 18 0 l 61 0 z m 106 1006 l 172 1006 l 6 1121 l -61 1121 z "},"Í":{"ha":151,"x_min":0,"x_max":0,"o":"m 61 936 l 18 936 l 18 0 l 61 0 z m 172 1121 l 106 1121 l -61 1006 l 6 1006 z "},"í":{"ha":151,"x_min":0,"x_max":0,"o":"m 61 936 l 18 936 l 18 0 l 61 0 z m 172 1121 l 106 1121 l -61 1006 l 6 1006 z "},"Î":{"ha":151,"x_min":0,"x_max":0,"o":"m 61 936 l 18 936 l 18 0 l 61 0 z m -71 1006 l -18 1006 l 51 1088 l 121 1006 l 174 1006 l 79 1121 l 24 1121 z "},"î":{"ha":151,"x_min":0,"x_max":0,"o":"m 61 936 l 18 936 l 18 0 l 61 0 z m -71 1006 l -18 1006 l 51 1088 l 121 1006 l 174 1006 l 79 1121 l 24 1121 z "},"Ï":{"ha":151,"x_min":0,"x_max":0,"o":"m 61 936 l 18 936 l 18 0 l 61 0 z m -21 1065 l -65 1065 l -65 1006 l -21 1006 z m 183 1065 l 139 1065 l 139 1006 l 183 1006 z "},"ï":{"ha":151,"x_min":0,"x_max":0,"o":"m 61 936 l 18 936 l 18 0 l 61 0 z m -21 1065 l -65 1065 l -65 1006 l -21 1006 z m 183 1065 l 139 1065 l 139 1006 l 183 1006 z "},"Ð":{"ha":483,"x_min":0,"x_max":0,"o":"m 176 0 b 393 253 325 0 393 86 l 393 683 b 176 936 393 850 325 936 l 17 936 l 17 0 z m 176 893 b 349 683 297 893 349 828 l 349 253 b 176 43 349 108 297 43 l 60 43 l 60 893 z m 221 489 l -118 489 l -118 446 l 221 446 z "},"ð":{"ha":483,"x_min":0,"x_max":0,"o":"m 176 0 b 393 253 325 0 393 86 l 393 683 b 176 936 393 850 325 936 l 17 936 l 17 0 z m 176 893 b 349 683 297 893 349 828 l 349 253 b 176 43 349 108 297 43 l 60 43 l 60 893 z m 221 489 l -118 489 l -118 446 l 221 446 z "},"Ñ":{"ha":500,"x_min":0,"x_max":0,"o":"m 417 0 l 417 936 l 372 936 l 372 135 l 50 936 l 13 936 l 13 0 l 57 0 l 57 801 l 381 0 z m 89 1003 b 213 1013 129 1063 182 1044 b 408 1058 250 974 361 954 l 351 1058 b 225 1058 329 1003 260 1021 b 32 1003 186 1100 88 1113 z "},"ñ":{"ha":500,"x_min":0,"x_max":0,"o":"m 417 0 l 417 936 l 372 936 l 372 135 l 50 936 l 13 936 l 13 0 l 57 0 l 57 801 l 381 0 z m 89 1003 b 213 1013 129 1063 182 1044 b 408 1058 250 974 361 954 l 351 1058 b 225 1058 329 1003 260 1021 b 32 1003 186 1100 88 1113 z "},"Ò":{"ha":494,"x_min":0,"x_max":0,"o":"m 14 249 b 79 47 14 144 40 85 b 213 0 118 10 168 0 b 347 47 258 0 308 10 b 413 249 386 85 413 144 l 413 689 b 213 936 413 850 346 936 b 14 689 81 936 14 849 z m 57 689 b 213 893 57 828 107 893 b 368 689 317 893 368 832 l 368 249 b 213 43 368 104 314 43 b 57 249 108 43 57 108 z m 263 1006 l 329 1006 l 163 1121 l 96 1121 z "},"ò":{"ha":494,"x_min":0,"x_max":0,"o":"m 14 249 b 79 47 14 144 40 85 b 213 0 118 10 168 0 b 347 47 258 0 308 10 b 413 249 386 85 413 144 l 413 689 b 213 936 413 850 346 936 b 14 689 81 936 14 849 z m 57 689 b 213 893 57 828 107 893 b 368 689 317 893 368 832 l 368 249 b 213 43 368 104 314 43 b 57 249 108 43 57 108 z m 263 1006 l 329 1006 l 163 1121 l 96 1121 z "},"Ó":{"ha":494,"x_min":0,"x_max":0,"o":"m 14 249 b 79 47 14 144 40 85 b 213 0 118 10 168 0 b 347 47 258 0 308 10 b 413 249 386 85 413 144 l 413 689 b 213 936 413 850 346 936 b 14 689 81 936 14 849 z m 57 689 b 213 893 57 828 107 893 b 368 689 317 893 368 832 l 368 249 b 213 43 368 104 314 43 b 57 249 108 43 57 108 z m 319 1121 l 253 1121 l 86 1006 l 153 1006 z "},"ó":{"ha":494,"x_min":0,"x_max":0,"o":"m 14 249 b 79 47 14 144 40 85 b 213 0 118 10 168 0 b 347 47 258 0 308 10 b 413 249 386 85 413 144 l 413 689 b 213 936 413 850 346 936 b 14 689 81 936 14 849 z m 57 689 b 213 893 57 828 107 893 b 368 689 317 893 368 832 l 368 249 b 213 43 368 104 314 43 b 57 249 108 43 57 108 z m 336 1121 l 269 1121 l 103 1006 l 169 1006 z "},"Ô":{"ha":494,"x_min":0,"x_max":0,"o":"m 14 249 b 79 47 14 144 40 85 b 213 0 118 10 168 0 b 347 47 258 0 308 10 b 413 249 386 85 413 144 l 413 689 b 213 936 413 850 346 936 b 14 689 81 936 14 849 z m 57 689 b 213 893 57 828 107 893 b 368 689 317 893 368 832 l 368 249 b 213 43 368 104 314 43 b 57 249 108 43 57 108 z m 89 1006 l 142 1006 l 211 1088 l 281 1006 l 333 1006 l 239 1121 l 183 1121 z "},"ô":{"ha":494,"x_min":0,"x_max":0,"o":"m 14 249 b 79 47 14 144 40 85 b 213 0 118 10 168 0 b 347 47 258 0 308 10 b 413 249 386 85 413 144 l 413 689 b 213 936 413 850 346 936 b 14 689 81 936 14 849 z m 57 689 b 213 893 57 828 107 893 b 368 689 317 893 368 832 l 368 249 b 213 43 368 104 314 43 b 57 249 108 43 57 108 z m 89 1006 l 142 1006 l 211 1088 l 281 1006 l 333 1006 l 239 1121 l 183 1121 z "},"Õ":{"ha":494,"x_min":0,"x_max":0,"o":"m 14 249 b 79 47 14 144 40 85 b 213 0 118 10 168 0 b 347 47 258 0 308 10 b 413 249 386 85 413 144 l 413 689 b 213 936 413 850 346 936 b 14 689 81 936 14 849 z m 57 689 b 213 893 57 828 107 893 b 368 689 317 893 368 832 l 368 249 b 213 43 368 104 314 43 b 57 249 108 43 57 108 z m 83 1003 b 207 1013 124 1063 176 1044 b 403 1058 244 974 356 954 l 346 1058 b 219 1058 324 1003 254 1021 b 26 1003 181 1100 82 1113 z "},"õ":{"ha":494,"x_min":0,"x_max":0,"o":"m 14 249 b 79 47 14 144 40 85 b 213 0 118 10 168 0 b 347 47 258 0 308 10 b 413 249 386 85 413 144 l 413 689 b 213 936 413 850 346 936 b 14 689 81 936 14 849 z m 57 689 b 213 893 57 828 107 893 b 368 689 317 893 368 832 l 368 249 b 213 43 368 104 314 43 b 57 249 108 43 57 108 z m 83 1003 b 207 1013 124 1063 176 1044 b 403 1058 244 974 356 954 l 346 1058 b 219 1058 324 1003 254 1021 b 26 1003 181 1100 82 1113 z "},"Ö":{"ha":494,"x_min":0,"x_max":0,"o":"m 14 249 b 79 47 14 144 40 85 b 213 0 118 10 168 0 b 347 47 258 0 308 10 b 413 249 386 85 413 144 l 413 689 b 213 936 413 850 346 936 b 14 689 81 936 14 849 z m 57 689 b 213 893 57 828 107 893 b 368 689 317 893 368 832 l 368 249 b 213 43 368 104 314 43 b 57 249 108 43 57 108 z m 135 1065 l 90 1065 l 90 1006 l 135 1006 z m 339 1065 l 294 1065 l 294 1006 l 339 1006 z "},"ö":{"ha":494,"x_min":0,"x_max":0,"o":"m 14 249 b 79 47 14 144 40 85 b 213 0 118 10 168 0 b 347 47 258 0 308 10 b 413 249 386 85 413 144 l 413 689 b 213 936 413 850 346 936 b 14 689 81 936 14 849 z m 57 689 b 213 893 57 828 107 893 b 368 689 317 893 368 832 l 368 249 b 213 43 368 104 314 43 b 57 249 108 43 57 108 z m 135 1065 l 90 1065 l 90 1006 l 135 1006 z m 339 1065 l 294 1065 l 294 1006 l 339 1006 z "},"Ø":{"ha":494,"x_min":0,"x_max":0,"o":"m 14 249 b 79 47 14 144 40 85 b 213 0 118 10 168 0 b 347 47 258 0 308 10 b 413 249 386 85 413 144 l 413 689 b 213 936 413 850 346 936 b 14 689 81 936 14 849 z m 57 689 b 213 893 57 828 107 893 b 368 689 317 893 368 832 l 368 249 b 213 43 368 104 314 43 b 57 249 108 43 57 108 z m 63 0 l 438 936 l 390 936 l 15 0 z "},"ø":{"ha":494,"x_min":0,"x_max":0,"o":"m 14 249 b 79 47 14 144 40 85 b 213 0 118 10 168 0 b 347 47 258 0 308 10 b 413 249 386 85 413 144 l 413 689 b 213 936 413 850 346 936 b 14 689 81 936 14 849 z m 57 689 b 213 893 57 828 107 893 b 368 689 317 893 368 832 l 368 249 b 213 43 368 104 314 43 b 57 249 108 43 57 108 z m 63 0 l 438 936 l 390 936 l 15 0 z "},"Ù":{"ha":499,"x_min":0,"x_max":0,"o":"m 3 231 b 203 1 3 97 57 1 b 401 231 343 1 401 90 l 401 938 l 358 938 l 358 231 b 203 44 358 124 326 44 b 46 231 85 44 46 113 l 46 938 l 3 938 z m 256 1006 l 322 1006 l 156 1121 l 89 1121 z "},"ù":{"ha":499,"x_min":0,"x_max":0,"o":"m 3 231 b 203 1 3 97 57 1 b 401 231 343 1 401 90 l 401 938 l 358 938 l 358 231 b 203 44 358 124 326 44 b 46 231 85 44 46 113 l 46 938 l 3 938 z m 256 1006 l 322 1006 l 156 1121 l 89 1121 z "},"Ú":{"ha":499,"x_min":0,"x_max":0,"o":"m 3 231 b 203 1 3 97 57 1 b 401 231 343 1 401 90 l 401 938 l 358 938 l 358 231 b 203 44 358 124 326 44 b 46 231 85 44 46 113 l 46 938 l 3 938 z m 333 1121 l 267 1121 l 100 1006 l 167 1006 z "},"ú":{"ha":499,"x_min":0,"x_max":0,"o":"m 3 231 b 203 1 3 97 57 1 b 401 231 343 1 401 90 l 401 938 l 358 938 l 358 231 b 203 44 358 124 326 44 b 46 231 85 44 46 113 l 46 938 l 3 938 z m 333 1121 l 267 1121 l 100 1006 l 167 1006 z "},"Û":{"ha":499,"x_min":0,"x_max":0,"o":"m 3 231 b 203 1 3 97 57 1 b 401 231 343 1 401 90 l 401 938 l 358 938 l 358 231 b 203 44 358 124 326 44 b 46 231 85 44 46 113 l 46 938 l 3 938 z m 72 1006 l 125 1006 l 194 1088 l 264 1006 l 317 1006 l 222 1121 l 167 1121 z "},"û":{"ha":499,"x_min":0,"x_max":0,"o":"m 3 231 b 203 1 3 97 57 1 b 401 231 343 1 401 90 l 401 938 l 358 938 l 358 231 b 203 44 358 124 326 44 b 46 231 85 44 46 113 l 46 938 l 3 938 z m 72 1006 l 125 1006 l 194 1088 l 264 1006 l 317 1006 l 222 1121 l 167 1121 z "},"Ü":{"ha":499,"x_min":0,"x_max":0,"o":"m 3 231 b 203 1 3 97 57 1 b 401 231 343 1 401 90 l 401 938 l 358 938 l 358 231 b 203 44 358 124 326 44 b 46 231 85 44 46 113 l 46 938 l 3 938 z m 126 1065 l 82 1065 l 82 1006 l 126 1006 z m 331 1065 l 286 1065 l 286 1006 l 331 1006 z "},"ü":{"ha":499,"x_min":0,"x_max":0,"o":"m 3 231 b 203 1 3 97 57 1 b 401 231 343 1 401 90 l 401 938 l 358 938 l 358 231 b 203 44 358 124 326 44 b 46 231 85 44 46 113 l 46 938 l 3 938 z m 126 1065 l 82 1065 l 82 1006 l 126 1006 z m 331 1065 l 286 1065 l 286 1006 l 331 1006 z "},"Ý":{"ha":494,"x_min":0,"x_max":0,"o":"m 36 936 l -14 936 l 192 463 l 192 0 l 235 0 l 235 463 l 439 936 l 389 936 l 213 532 z m 336 1121 l 269 1121 l 103 1006 l 169 1006 z "},"ý":{"ha":494,"x_min":0,"x_max":0,"o":"m 36 936 l -14 936 l 192 463 l 192 0 l 235 0 l 235 463 l 439 936 l 389 936 l 213 532 z m 336 1121 l 269 1121 l 103 1006 l 169 1006 z "},"Þ":{"ha":467,"x_min":0,"x_max":0,"o":"m 47 271 l 231 271 b 467 472 386 271 467 356 b 231 674 467 590 390 674 l 47 674 l 47 936 l 4 936 l 4 0 l 47 0 z m 47 631 l 231 631 b 424 472 368 631 424 560 b 231 315 424 386 368 315 l 47 315 z "},"ÿ":{"ha":494,"x_min":0,"x_max":0,"o":"m 36 936 l -14 936 l 192 463 l 192 0 l 235 0 l 235 463 l 439 936 l 389 936 l 213 532 z m 135 1065 l 90 1065 l 90 1006 l 135 1006 z m 339 1065 l 294 1065 l 294 1006 l 339 1006 z "},"Ł":{"ha":506,"x_min":0,"x_max":0,"o":"m 296 629 l -93 240 l -62 210 l 325 599 z m 419 43 l 133 43 l 133 936 l 89 936 l 89 0 l 419 0 z "},"ł":{"ha":506,"x_min":0,"x_max":0,"o":"m 296 629 l -93 240 l -62 210 l 325 599 z m 419 43 l 133 43 l 133 936 l 89 936 l 89 0 l 419 0 z "},"Œ":{"ha":686,"x_min":0,"x_max":0,"o":"m 268 936 b 14 661 136 936 14 821 l 14 303 b 268 0 14 126 88 0 l 279 0 l 604 0 l 604 43 l 311 43 l 311 447 l 604 447 l 604 490 l 311 490 l 311 893 l 604 893 l 604 936 z m 57 661 b 268 893 57 800 163 893 l 268 43 b 57 276 164 43 57 136 z "},"œ":{"ha":686,"x_min":0,"x_max":0,"o":"m 268 936 b 14 661 136 936 14 821 l 14 303 b 268 0 14 126 88 0 l 279 0 l 604 0 l 604 43 l 311 43 l 311 447 l 604 447 l 604 490 l 311 490 l 311 893 l 604 893 l 604 936 z m 57 661 b 268 893 57 800 163 893 l 268 43 b 57 276 164 43 57 136 z "},"Š":{"ha":483,"x_min":0,"x_max":0,"o":"m 14 249 b 214 1 14 83 81 1 b 415 214 343 1 415 75 b 57 721 415 454 57 499 b 214 893 57 842 114 893 b 371 689 319 893 371 829 l 371 667 l 415 667 l 415 689 b 214 938 415 850 346 938 b 14 717 86 938 14 857 b 371 210 14 475 371 418 b 214 44 371 86 314 44 b 111 78 181 44 142 50 b 57 249 81 106 57 156 l 57 269 l 14 269 z m 213 1038 l 143 1121 l 90 1121 l 185 1006 l 240 1006 l 335 1121 l 282 1121 z "},"š":{"ha":483,"x_min":0,"x_max":0,"o":"m 14 249 b 214 1 14 83 81 1 b 415 214 343 1 415 75 b 57 721 415 454 57 499 b 214 893 57 842 114 893 b 371 689 319 893 371 829 l 371 667 l 415 667 l 415 689 b 214 938 415 850 346 938 b 14 717 86 938 14 857 b 371 210 14 475 371 418 b 214 44 371 86 314 44 b 111 78 181 44 142 50 b 57 249 81 106 57 156 l 57 269 l 14 269 z m 213 1038 l 143 1121 l 90 1121 l 185 1006 l 240 1006 l 335 1121 l 282 1121 z "},"Ÿ":{"ha":494,"x_min":0,"x_max":0,"o":"m 36 936 l -14 936 l 192 463 l 192 0 l 235 0 l 235 463 l 439 936 l 389 936 l 213 532 z m 135 1065 l 90 1065 l 90 1006 l 135 1006 z m 339 1065 l 294 1065 l 294 1006 l 339 1006 z "},"Ž":{"ha":513,"x_min":0,"x_max":0,"o":"m 414 936 l 0 936 l 0 893 l 364 893 l 7 43 l 7 0 l 407 0 l 407 43 l 56 43 l 414 896 z m 200 1038 l 131 1121 l 78 1121 l 172 1006 l 228 1006 l 322 1121 l 269 1121 z "},"<":{"ha":336,"x_min":0,"x_max":0,"o":"m 265 293 l 57 501 l 265 710 l 206 710 l 26 532 l -4 501 l 26 471 l 206 293 z "},">":{"ha":336,"x_min":0,"x_max":0,"o":"m 56 293 l 235 471 l 265 501 l 235 532 l 56 710 l -4 710 l 204 501 l -4 293 z "},"^":{"ha":260,"x_min":0,"x_max":0,"o":"m 154 1121 l 101 1121 l 4 1006 l 57 1006 z m 196 1006 l 249 1006 l 151 1121 l 99 1121 z "},"":{"ha":0,"x_min":0,"x_max":0,"o":""},"£":{"ha":449,"x_min":0,"x_max":0,"o":"m 342 489 l 131 489 b 132 713 132 553 132 626 b 251 893 132 824 168 893 b 357 797 321 893 346 856 l 394 817 b 251 936 374 893 335 936 b 88 713 140 936 88 840 b 90 489 88 633 89 560 l 3 489 l 3 446 l 90 446 b 1 47 90 268 78 124 l 1 0 l 411 0 l 411 47 l 53 47 b 131 446 113 111 128 218 l 342 446 z "},"Ǽ":{"ha":854,"x_min":0,"x_max":0,"o":"m 431 936 l 7 0 l 54 0 l 188 286 l 433 286 l 433 0 l 769 0 l 769 43 l 476 43 l 476 447 l 769 447 l 769 490 l 476 490 l 476 893 l 769 893 l 769 936 z m 207 329 l 433 829 l 433 329 z m 572 1121 l 506 1121 l 339 1006 l 406 1006 z "},"Ć":{"ha":478,"x_min":0,"x_max":0,"o":"m 11 249 b 76 47 11 144 38 85 b 211 0 115 10 165 0 b 344 47 256 0 306 10 b 410 249 383 85 410 144 l 410 271 l 365 271 l 365 249 b 326 92 365 178 353 126 b 211 43 300 60 261 43 b 56 249 107 43 56 106 l 56 689 b 211 893 56 832 110 893 b 365 689 311 893 365 832 l 365 667 l 410 667 l 410 689 b 344 890 410 790 383 854 b 211 936 306 926 256 936 b 76 890 165 936 115 926 b 11 689 38 854 11 790 z m 339 1121 l 272 1121 l 106 1006 l 172 1006 z "},"":{"ha":239,"x_min":0,"x_max":0,"o":"m 171 1006 l 238 1006 l 71 1121 l 4 1121 z "},"":{"ha":249,"x_min":0,"x_max":0,"o":"m 46 1065 l 1 1065 l 1 1006 l 46 1006 z m 250 1065 l 206 1065 l 206 1006 l 250 1006 z "},"":{"ha":253,"x_min":0,"x_max":0,"o":"m 57 1121 l 4 1121 l 101 1006 l 154 1006 z m 99 1006 l 151 1006 l 249 1121 l 196 1121 z "},"Ĉ":{"ha":478,"x_min":0,"x_max":0,"o":"m 11 249 b 76 47 11 144 38 85 b 211 0 115 10 165 0 b 344 47 256 0 306 10 b 410 249 383 85 410 144 l 410 271 l 365 271 l 365 249 b 326 92 365 178 353 126 b 211 43 300 60 261 43 b 56 249 107 43 56 106 l 56 689 b 211 893 56 832 110 893 b 365 689 311 893 365 832 l 365 667 l 410 667 l 410 689 b 344 890 410 790 383 854 b 211 936 306 926 256 936 b 76 890 165 936 115 926 b 11 689 38 854 11 790 z m 83 1006 l 136 1006 l 206 1088 l 275 1006 l 328 1006 l 233 1121 l 178 1121 z "},"˙":{"ha":44,"x_min":0,"x_max":0,"o":"m 44 1054 l 0 1054 l 0 994 l 44 994 z "},"Č":{"ha":478,"x_min":0,"x_max":0,"o":"m 11 249 b 76 47 11 144 38 85 b 211 0 115 10 165 0 b 344 47 256 0 306 10 b 410 249 383 85 410 144 l 410 271 l 365 271 l 365 249 b 326 92 365 178 353 126 b 211 43 300 60 261 43 b 56 249 107 43 56 106 l 56 689 b 211 893 56 832 110 893 b 365 689 311 893 365 832 l 365 667 l 410 667 l 410 689 b 344 890 410 790 383 854 b 211 936 306 926 256 936 b 76 890 165 936 115 926 b 11 689 38 854 11 790 z m 208 1038 l 139 1121 l 86 1121 l 181 1006 l 236 1006 l 331 1121 l 278 1121 z "},"Ċ":{"ha":478,"x_min":0,"x_max":0,"o":"m 11 249 b 76 47 11 144 38 85 b 211 0 115 10 165 0 b 344 47 256 0 306 10 b 410 249 383 85 410 144 l 410 271 l 365 271 l 365 249 b 326 92 365 178 353 126 b 211 43 300 60 261 43 b 56 249 107 43 56 106 l 56 689 b 211 893 56 832 110 893 b 365 689 311 893 365 832 l 365 667 l 410 667 l 410 689 b 344 890 410 790 383 854 b 211 936 306 926 256 936 b 76 890 165 936 115 926 b 11 689 38 854 11 790 z m 225 1054 l 181 1054 l 181 994 l 225 994 z "},"Ď":{"ha":483,"x_min":0,"x_max":0,"o":"m 176 0 b 393 253 325 0 393 86 l 393 683 b 176 936 393 850 325 936 l 17 936 l 17 0 z m 176 893 b 349 683 297 893 349 828 l 349 253 b 176 43 349 108 297 43 l 60 43 l 60 893 z m 181 1038 l 111 1121 l 58 1121 l 153 1006 l 208 1006 l 303 1121 l 250 1121 z "},"Đ":{"ha":511,"x_min":0,"x_max":0,"o":"m 260 0 b 476 253 408 0 476 86 l 476 683 b 260 936 476 850 408 936 l 100 936 l 100 489 l -10 489 l -10 446 l 100 446 l 100 0 z m 260 893 b 432 683 381 893 432 828 l 432 253 b 260 43 432 108 381 43 l 143 43 l 143 446 l 274 446 l 274 489 l 143 489 l 143 893 z "},"Ě":{"ha":421,"x_min":0,"x_max":0,"o":"m 14 936 l 14 0 l 350 0 l 350 43 l 57 43 l 57 447 l 308 447 l 308 490 l 57 490 l 57 893 l 350 893 l 350 936 z m 186 1038 l 117 1121 l 64 1121 l 158 1006 l 214 1006 l 308 1121 l 256 1121 z "},"¯":{"ha":251,"x_min":0,"x_max":0,"o":"m 251 1049 l 7 1049 l 7 1006 l 251 1006 z "},"":{"ha":251,"x_min":0,"x_max":0,"o":"m 251 1049 l 7 1049 l 7 1006 l 251 1006 z "},"˘":{"ha":265,"x_min":0,"x_max":0,"o":"m 133 1049 b 56 1104 60 1049 56 1078 l 6 1104 b 133 1006 6 1014 104 1006 b 261 1104 163 1006 261 1014 l 211 1104 b 133 1049 211 1078 207 1049 z "},"":{"ha":274,"x_min":0,"x_max":0,"o":"m 251 1121 l 185 1121 l 18 1006 l 85 1006 z "},"":{"ha":292,"x_min":0,"x_max":0,"o":"m 167 -65 l 124 -65 l 124 -181 l 167 -181 z "},"Ā":{"ha":544,"x_min":0,"x_max":0,"o":"m 433 0 l 478 0 l 264 936 l 229 936 l 88 329 l 88 325 l 14 0 l 58 0 l 122 286 l 369 286 z m 246 818 l 360 329 l 133 329 z m 367 1049 l 122 1049 l 122 1006 l 367 1006 z "},"Ĕ":{"ha":421,"x_min":0,"x_max":0,"o":"m 14 936 l 14 0 l 350 0 l 350 43 l 57 43 l 57 447 l 308 447 l 308 490 l 57 490 l 57 893 l 350 893 l 350 936 z m 172 1049 b 94 1104 99 1049 94 1078 l 44 1104 b 172 1006 44 1014 143 1006 b 300 1104 201 1006 300 1014 l 250 1104 b 172 1049 250 1078 246 1049 z "},"Ė":{"ha":421,"x_min":0,"x_max":0,"o":"m 14 936 l 14 0 l 350 0 l 350 43 l 57 43 l 57 447 l 308 447 l 308 490 l 57 490 l 57 893 l 350 893 l 350 936 z m 208 1054 l 164 1054 l 164 994 l 208 994 z "},"Ē":{"ha":421,"x_min":0,"x_max":0,"o":"m 14 936 l 14 0 l 350 0 l 350 43 l 57 43 l 57 447 l 308 447 l 308 490 l 57 490 l 57 893 l 350 893 l 350 936 z m 303 1049 l 58 1049 l 58 1006 l 303 1006 z "},"Ğ":{"ha":489,"x_min":0,"x_max":0,"o":"m 14 247 b 214 0 14 88 81 0 b 414 247 347 0 414 86 l 414 414 l 167 414 l 167 369 l 369 369 l 369 247 b 214 43 369 108 318 43 b 57 247 108 43 57 108 l 57 690 b 111 860 57 781 81 832 b 214 893 142 888 181 893 b 317 860 247 893 286 888 b 369 690 347 832 369 781 l 369 668 l 414 668 l 414 690 b 214 936 414 851 347 936 b 14 690 81 936 14 851 z m 203 1049 b 125 1104 129 1049 125 1078 l 75 1104 b 203 1006 75 1014 174 1006 b 331 1104 232 1006 331 1014 l 281 1104 b 203 1049 281 1078 276 1049 z "},"Ĝ":{"ha":489,"x_min":0,"x_max":0,"o":"m 14 247 b 214 0 14 88 81 0 b 414 247 347 0 414 86 l 414 414 l 167 414 l 167 369 l 369 369 l 369 247 b 214 43 369 108 318 43 b 57 247 108 43 57 108 l 57 690 b 111 860 57 781 81 832 b 214 893 142 888 181 893 b 317 860 247 893 286 888 b 369 690 347 832 369 781 l 369 668 l 414 668 l 414 690 b 214 936 414 851 347 936 b 14 690 81 936 14 851 z m 83 1006 l 136 1006 l 206 1088 l 275 1006 l 328 1006 l 233 1121 l 178 1121 z "},"Ģ":{"ha":489,"x_min":0,"x_max":0,"o":"m 14 247 b 214 0 14 88 81 0 b 414 247 347 0 414 86 l 414 414 l 167 414 l 167 369 l 369 369 l 369 247 b 214 43 369 108 318 43 b 57 247 108 43 57 108 l 57 690 b 111 860 57 781 81 832 b 214 893 142 888 181 893 b 317 860 247 893 286 888 b 369 690 347 832 369 781 l 369 668 l 414 668 l 414 690 b 214 936 414 851 347 936 b 14 690 81 936 14 851 z m 247 -65 l 204 -65 l 204 -181 l 247 -181 z "},"Ġ":{"ha":489,"x_min":0,"x_max":0,"o":"m 14 247 b 214 0 14 88 81 0 b 414 247 347 0 414 86 l 414 414 l 167 414 l 167 369 l 369 369 l 369 247 b 214 43 369 108 318 43 b 57 247 108 43 57 108 l 57 690 b 111 860 57 781 81 832 b 214 893 142 888 181 893 b 317 860 247 893 286 888 b 369 690 347 832 369 781 l 369 668 l 414 668 l 414 690 b 214 936 414 851 347 936 b 14 690 81 936 14 851 z m 231 1054 l 186 1054 l 186 994 l 231 994 z "},"Ĥ":{"ha":478,"x_min":0,"x_max":0,"o":"m 58 489 l 58 936 l 14 936 l 14 0 l 58 0 l 58 446 l 342 446 l 342 0 l 386 0 l 386 936 l 342 936 l 342 489 z m 72 1006 l 125 1006 l 194 1088 l 264 1006 l 317 1006 l 222 1121 l 167 1121 z "},"Ĭ":{"ha":151,"x_min":0,"x_max":0,"o":"m 61 936 l 18 936 l 18 0 l 61 0 z m 39 1049 b -39 1104 -35 1049 -39 1078 l -89 1104 b 39 1006 -89 1014 10 1006 b 167 1104 68 1006 167 1014 l 117 1104 b 39 1049 117 1078 113 1049 z "},"İ":{"ha":151,"x_min":0,"x_max":0,"o":"m 61 936 l 18 936 l 18 0 l 61 0 z m 63 1054 l 18 1054 l 18 994 l 63 994 z "},"Ī":{"ha":151,"x_min":0,"x_max":0,"o":"m 61 936 l 18 936 l 18 0 l 61 0 z m 161 1049 l -83 1049 l -83 1006 l 161 1006 z "},"Ĩ":{"ha":151,"x_min":0,"x_max":0,"o":"m 61 936 l 18 936 l 18 0 l 61 0 z m -90 1003 b 33 1013 -50 1063 3 1044 b 229 1058 71 974 182 954 l 172 1058 b 46 1058 150 1003 81 1021 b -147 1003 7 1100 -92 1113 z "},"Ĵ":{"ha":450,"x_min":0,"x_max":0,"o":"m 0 229 b 186 0 0 78 63 0 b 371 229 310 0 371 78 l 371 936 l 328 936 l 328 229 b 186 43 328 101 279 43 b 92 74 154 43 119 47 b 43 229 64 100 43 146 l 43 250 l 0 250 z m 226 1006 l 279 1006 l 349 1088 l 418 1006 l 471 1006 l 376 1121 l 321 1121 z "},"Ķ":{"ha":469,"x_min":0,"x_max":0,"o":"m 56 404 l 56 936 l 11 936 l 11 0 l 56 0 l 56 325 l 133 443 l 386 0 l 436 0 l 158 489 l 436 936 l 383 936 z m 232 -65 l 189 -65 l 189 -181 l 232 -181 z "},"Ĺ":{"ha":396,"x_min":0,"x_max":0,"o":"m 336 43 l 50 43 l 50 936 l 6 936 l 6 0 l 336 0 z m 150 1121 l 83 1121 l -83 1006 l -17 1006 z "},"Ľ":{"ha":396,"x_min":0,"x_max":0,"o":"m 29 1038 l -40 1121 l -93 1121 l 1 1006 l 57 1006 l 151 1121 l 99 1121 z m 336 43 l 50 43 l 50 936 l 6 936 l 6 0 l 336 0 z "},"Ļ":{"ha":396,"x_min":0,"x_max":0,"o":"m 336 43 l 50 43 l 50 936 l 6 936 l 6 0 l 336 0 z m 189 -65 l 146 -65 l 146 -181 l 189 -181 z "},"Ń":{"ha":500,"x_min":0,"x_max":0,"o":"m 417 0 l 417 936 l 372 936 l 372 135 l 50 936 l 13 936 l 13 0 l 57 0 l 57 801 l 381 0 z m 319 1121 l 253 1121 l 86 1006 l 153 1006 z "},"Ň":{"ha":500,"x_min":0,"x_max":0,"o":"m 417 0 l 417 936 l 372 936 l 372 135 l 50 936 l 13 936 l 13 0 l 57 0 l 57 801 l 381 0 z m 208 1038 l 139 1121 l 86 1121 l 181 1006 l 236 1006 l 331 1121 l 278 1121 z "},"Ņ":{"ha":500,"x_min":0,"x_max":0,"o":"m 417 0 l 417 936 l 372 936 l 372 135 l 50 936 l 13 936 l 13 0 l 57 0 l 57 801 l 381 0 z m 253 -65 l 210 -65 l 210 -181 l 253 -181 z "},"Ŏ":{"ha":494,"x_min":0,"x_max":0,"o":"m 14 249 b 79 47 14 144 40 85 b 213 0 118 10 168 0 b 347 47 258 0 308 10 b 413 249 386 85 413 144 l 413 689 b 213 936 413 850 346 936 b 14 689 81 936 14 849 z m 57 689 b 213 893 57 828 107 893 b 368 689 317 893 368 832 l 368 249 b 213 43 368 104 314 43 b 57 249 108 43 57 108 z m 206 1049 b 128 1104 132 1049 128 1078 l 78 1104 b 206 1006 78 1014 176 1006 b 333 1104 235 1006 333 1014 l 283 1104 b 206 1049 283 1078 279 1049 z "},"Ō":{"ha":494,"x_min":0,"x_max":0,"o":"m 14 249 b 79 47 14 144 40 85 b 213 0 118 10 168 0 b 347 47 258 0 308 10 b 413 249 386 85 413 144 l 413 689 b 213 936 413 850 346 936 b 14 689 81 936 14 849 z m 57 689 b 213 893 57 828 107 893 b 368 689 317 893 368 832 l 368 249 b 213 43 368 104 314 43 b 57 249 108 43 57 108 z m 325 1049 l 81 1049 l 81 1006 l 325 1006 z "},"Ǿ":{"ha":494,"x_min":0,"x_max":0,"o":"m 14 249 b 79 47 14 144 40 85 b 213 0 118 10 168 0 b 347 47 258 0 308 10 b 413 249 386 85 413 144 l 413 689 b 213 936 413 850 346 936 b 14 689 81 936 14 849 z m 57 689 b 213 893 57 828 107 893 b 368 689 317 893 368 832 l 368 249 b 213 43 368 104 314 43 b 57 249 108 43 57 108 z m 63 0 l 438 936 l 390 936 l 15 0 z m 322 1121 l 256 1121 l 89 1006 l 156 1006 z "},"Ŕ":{"ha":483,"x_min":0,"x_max":0,"o":"m 403 261 b 340 426 403 332 382 386 b 293 460 326 440 311 451 b 363 503 315 471 347 485 b 414 689 397 543 414 606 b 211 938 414 860 361 938 l 15 938 l 15 1 l 58 1 l 58 439 l 183 439 b 358 261 294 439 358 374 l 358 1 l 403 1 z m 58 893 l 211 893 b 371 689 335 893 371 835 b 183 483 371 544 307 483 l 58 483 z m 315 1121 l 249 1121 l 82 1006 l 149 1006 z "},"Ř":{"ha":483,"x_min":0,"x_max":0,"o":"m 403 261 b 340 426 403 332 382 386 b 293 460 326 440 311 451 b 363 503 315 471 347 485 b 414 689 397 543 414 606 b 211 938 414 860 361 938 l 15 938 l 15 1 l 58 1 l 58 439 l 183 439 b 358 261 294 439 358 374 l 358 1 l 403 1 z m 58 893 l 211 893 b 371 689 335 893 371 835 b 183 483 371 544 307 483 l 58 483 z m 182 1038 l 113 1121 l 60 1121 l 154 1006 l 210 1006 l 304 1121 l 251 1121 z "},"Ŗ":{"ha":483,"x_min":0,"x_max":0,"o":"m 403 261 b 340 426 403 332 382 386 b 293 460 326 440 311 451 b 363 503 315 471 347 485 b 414 689 397 543 414 606 b 211 938 414 860 361 938 l 15 938 l 15 1 l 58 1 l 58 439 l 183 439 b 358 261 294 439 358 374 l 358 1 l 403 1 z m 58 893 l 211 893 b 371 689 335 893 371 835 b 183 483 371 544 307 483 l 58 483 z m 226 -65 l 183 -65 l 183 -181 l 226 -181 z "},"Ś":{"ha":483,"x_min":0,"x_max":0,"o":"m 14 249 b 214 1 14 83 81 1 b 415 214 343 1 415 75 b 57 721 415 454 57 499 b 214 893 57 842 114 893 b 371 689 319 893 371 829 l 371 667 l 415 667 l 415 689 b 214 938 415 850 346 938 b 14 717 86 938 14 857 b 371 210 14 475 371 418 b 214 44 371 86 314 44 b 111 78 181 44 142 50 b 57 249 81 106 57 156 l 57 269 l 14 269 z m 319 1121 l 253 1121 l 86 1006 l 153 1006 z "},"Ş":{"ha":483,"x_min":0,"x_max":0,"o":"m 14 249 b 214 1 14 83 81 1 b 415 214 343 1 415 75 b 57 721 415 454 57 499 b 214 893 57 842 114 893 b 371 689 319 893 371 829 l 371 667 l 415 667 l 415 689 b 214 938 415 850 346 938 b 14 717 86 938 14 857 b 371 210 14 475 371 418 b 214 44 371 86 314 44 b 111 78 181 44 142 50 b 57 249 81 106 57 156 l 57 269 l 14 269 z m 231 10 l 190 10 l 190 -104 b 300 -143 254 -104 311 -101 b 139 -168 283 -204 139 -168 l 139 -201 b 343 -137 139 -217 343 -251 b 231 -65 343 -57 231 -65 z "},"Ŝ":{"ha":483,"x_min":0,"x_max":0,"o":"m 14 249 b 214 1 14 83 81 1 b 415 214 343 1 415 75 b 57 721 415 454 57 499 b 214 893 57 842 114 893 b 371 689 319 893 371 829 l 371 667 l 415 667 l 415 689 b 214 938 415 850 346 938 b 14 717 86 938 14 857 b 371 210 14 475 371 418 b 214 44 371 86 314 44 b 111 78 181 44 142 50 b 57 249 81 106 57 156 l 57 269 l 14 269 z m 88 1006 l 140 1006 l 210 1088 l 279 1006 l 332 1006 l 238 1121 l 182 1121 z "},"Ť":{"ha":488,"x_min":0,"x_max":0,"o":"m 7 893 l 189 893 l 189 1 l 232 1 l 232 893 l 415 893 l 415 938 l 7 938 z m 214 1038 l 144 1121 l 92 1121 l 186 1006 l 242 1006 l 336 1121 l 283 1121 z "},"Ţ":{"ha":488,"x_min":0,"x_max":0,"o":"m 7 893 l 189 893 l 189 1 l 232 1 l 232 893 l 415 893 l 415 938 l 7 938 z m 233 -65 l 190 -65 l 190 -181 l 233 -181 z "},"Ŭ":{"ha":499,"x_min":0,"x_max":0,"o":"m 3 231 b 203 1 3 97 57 1 b 401 231 343 1 401 90 l 401 938 l 358 938 l 358 231 b 203 44 358 124 326 44 b 46 231 85 44 46 113 l 46 938 l 3 938 z m 194 1049 b 117 1104 121 1049 117 1078 l 67 1104 b 194 1006 67 1014 165 1006 b 322 1104 224 1006 322 1014 l 272 1104 b 194 1049 272 1078 268 1049 z "},"Ū":{"ha":499,"x_min":0,"x_max":0,"o":"m 3 231 b 203 1 3 97 57 1 b 401 231 343 1 401 90 l 401 938 l 358 938 l 358 231 b 203 44 358 124 326 44 b 46 231 85 44 46 113 l 46 938 l 3 938 z m 321 1049 l 76 1049 l 76 1006 l 321 1006 z "},"Ů":{"ha":499,"x_min":0,"x_max":0,"o":"m 3 938 l 46 938 l 46 231 b 203 44 46 113 85 44 b 358 231 326 44 358 124 l 358 938 l 401 938 l 401 231 b 203 1 401 90 343 1 b 3 231 57 1 3 97 z m 132 1061 b 193 1000 132 1028 160 1000 b 254 1061 226 1000 254 1028 b 193 1122 254 1094 226 1122 b 132 1061 160 1122 132 1094 z m 169 1061 b 192 1083 169 1074 179 1083 b 214 1061 204 1083 214 1074 b 192 1039 214 1049 204 1039 b 169 1061 179 1039 169 1049 z "},"Ũ":{"ha":499,"x_min":0,"x_max":0,"o":"m 3 231 b 203 1 3 97 57 1 b 401 231 343 1 401 90 l 401 938 l 358 938 l 358 231 b 203 44 358 124 326 44 b 46 231 85 44 46 113 l 46 938 l 3 938 z m 67 1003 b 190 1013 107 1063 160 1044 b 386 1058 228 974 339 954 l 329 1058 b 203 1058 307 1003 238 1021 b 10 1003 164 1100 65 1113 z "},"Ẃ":{"ha":708,"x_min":0,"x_max":0,"o":"m 342 936 l 307 936 l 169 124 l 44 936 l 0 936 l 151 0 l 186 0 l 324 813 l 461 0 l 497 0 l 646 936 l 600 936 l 479 124 z m 440 1121 l 374 1121 l 207 1006 l 274 1006 z "},"Ŵ":{"ha":708,"x_min":0,"x_max":0,"o":"m 342 936 l 307 936 l 169 124 l 44 936 l 0 936 l 151 0 l 186 0 l 324 813 l 461 0 l 497 0 l 646 936 l 600 936 l 479 124 z m 203 1006 l 256 1006 l 325 1088 l 394 1006 l 447 1006 l 353 1121 l 297 1121 z "},"Ẅ":{"ha":708,"x_min":0,"x_max":0,"o":"m 342 936 l 307 936 l 169 124 l 44 936 l 0 936 l 151 0 l 186 0 l 324 813 l 461 0 l 497 0 l 646 936 l 600 936 l 479 124 z m 244 1065 l 200 1065 l 200 1006 l 244 1006 z m 449 1065 l 404 1065 l 404 1006 l 449 1006 z "},"Ẁ":{"ha":708,"x_min":0,"x_max":0,"o":"m 342 936 l 307 936 l 169 124 l 44 936 l 0 936 l 151 0 l 186 0 l 324 813 l 461 0 l 497 0 l 646 936 l 600 936 l 479 124 z m 374 1006 l 440 1006 l 274 1121 l 207 1121 z "},"Ŷ":{"ha":494,"x_min":0,"x_max":0,"o":"m 36 936 l -14 936 l 192 463 l 192 0 l 235 0 l 235 463 l 439 936 l 389 936 l 213 532 z m 90 1006 l 143 1006 l 213 1088 l 282 1006 l 335 1006 l 240 1121 l 185 1121 z "},"Ỳ":{"ha":494,"x_min":0,"x_max":0,"o":"m 36 936 l -14 936 l 192 463 l 192 0 l 235 0 l 235 463 l 439 936 l 389 936 l 213 532 z m 263 1006 l 329 1006 l 163 1121 l 96 1121 z "},"Ź":{"ha":501,"x_min":0,"x_max":0,"o":"m 414 936 l 0 936 l 0 893 l 364 893 l 7 43 l 7 0 l 407 0 l 407 43 l 56 43 l 414 896 z m 328 1121 l 261 1121 l 94 1006 l 161 1006 z "},"Ż":{"ha":501,"x_min":0,"x_max":0,"o":"m 414 936 l 0 936 l 0 893 l 364 893 l 7 43 l 7 0 l 407 0 l 407 43 l 56 43 l 414 896 z m 222 1054 l 178 1054 l 178 994 l 222 994 z "},"ā":{"ha":544,"x_min":0,"x_max":0,"o":"m 433 0 l 478 0 l 264 936 l 229 936 l 88 329 l 88 325 l 14 0 l 58 0 l 122 286 l 369 286 z m 246 818 l 360 329 l 133 329 z m 367 1049 l 122 1049 l 122 1006 l 367 1006 z "},"ǽ":{"ha":854,"x_min":0,"x_max":0,"o":"m 431 936 l 7 0 l 54 0 l 188 286 l 433 286 l 433 0 l 769 0 l 769 43 l 476 43 l 476 447 l 769 447 l 769 490 l 476 490 l 476 893 l 769 893 l 769 936 z m 207 329 l 433 829 l 433 329 z m 572 1121 l 506 1121 l 339 1006 l 406 1006 z "},"ć":{"ha":478,"x_min":0,"x_max":0,"o":"m 11 249 b 76 47 11 144 38 85 b 211 0 115 10 165 0 b 344 47 256 0 306 10 b 410 249 383 85 410 144 l 410 271 l 365 271 l 365 249 b 326 92 365 178 353 126 b 211 43 300 60 261 43 b 56 249 107 43 56 106 l 56 689 b 211 893 56 832 110 893 b 365 689 311 893 365 832 l 365 667 l 410 667 l 410 689 b 344 890 410 790 383 854 b 211 936 306 926 256 936 b 76 890 165 936 115 926 b 11 689 38 854 11 790 z m 339 1121 l 272 1121 l 106 1006 l 172 1006 z "},"č":{"ha":478,"x_min":0,"x_max":0,"o":"m 11 249 b 76 47 11 144 38 85 b 211 0 115 10 165 0 b 344 47 256 0 306 10 b 410 249 383 85 410 144 l 410 271 l 365 271 l 365 249 b 326 92 365 178 353 126 b 211 43 300 60 261 43 b 56 249 107 43 56 106 l 56 689 b 211 893 56 832 110 893 b 365 689 311 893 365 832 l 365 667 l 410 667 l 410 689 b 344 890 410 790 383 854 b 211 936 306 926 256 936 b 76 890 165 936 115 926 b 11 689 38 854 11 790 z m 208 1038 l 139 1121 l 86 1121 l 181 1006 l 236 1006 l 331 1121 l 278 1121 z "},"ĉ":{"ha":478,"x_min":0,"x_max":0,"o":"m 11 249 b 76 47 11 144 38 85 b 211 0 115 10 165 0 b 344 47 256 0 306 10 b 410 249 383 85 410 144 l 410 271 l 365 271 l 365 249 b 326 92 365 178 353 126 b 211 43 300 60 261 43 b 56 249 107 43 56 106 l 56 689 b 211 893 56 832 110 893 b 365 689 311 893 365 832 l 365 667 l 410 667 l 410 689 b 344 890 410 790 383 854 b 211 936 306 926 256 936 b 76 890 165 936 115 926 b 11 689 38 854 11 790 z m 83 1006 l 136 1006 l 206 1088 l 275 1006 l 328 1006 l 233 1121 l 178 1121 z "},"ċ":{"ha":478,"x_min":0,"x_max":0,"o":"m 11 249 b 76 47 11 144 38 85 b 211 0 115 10 165 0 b 344 47 256 0 306 10 b 410 249 383 85 410 144 l 410 271 l 365 271 l 365 249 b 326 92 365 178 353 126 b 211 43 300 60 261 43 b 56 249 107 43 56 106 l 56 689 b 211 893 56 832 110 893 b 365 689 311 893 365 832 l 365 667 l 410 667 l 410 689 b 344 890 410 790 383 854 b 211 936 306 926 256 936 b 76 890 165 936 115 926 b 11 689 38 854 11 790 z m 225 1054 l 181 1054 l 181 994 l 225 994 z "},"ď":{"ha":483,"x_min":0,"x_max":0,"o":"m 176 0 b 393 253 325 0 393 86 l 393 683 b 176 936 393 850 325 936 l 17 936 l 17 0 z m 176 893 b 349 683 297 893 349 828 l 349 253 b 176 43 349 108 297 43 l 60 43 l 60 893 z m 181 1038 l 111 1121 l 58 1121 l 153 1006 l 208 1006 l 303 1121 l 250 1121 z "},"đ":{"ha":511,"x_min":0,"x_max":0,"o":"m 260 0 b 476 253 408 0 476 86 l 476 683 b 260 936 476 850 408 936 l 100 936 l 100 489 l -10 489 l -10 446 l 100 446 l 100 0 z m 260 893 b 432 683 381 893 432 828 l 432 253 b 260 43 432 108 381 43 l 143 43 l 143 446 l 274 446 l 274 489 l 143 489 l 143 893 z "},"ĕ":{"ha":421,"x_min":0,"x_max":0,"o":"m 14 936 l 14 0 l 350 0 l 350 43 l 57 43 l 57 447 l 308 447 l 308 490 l 57 490 l 57 893 l 350 893 l 350 936 z m 172 1049 b 94 1104 99 1049 94 1078 l 44 1104 b 172 1006 44 1014 143 1006 b 300 1104 201 1006 300 1014 l 250 1104 b 172 1049 250 1078 246 1049 z "},"ě":{"ha":421,"x_min":0,"x_max":0,"o":"m 14 936 l 14 0 l 350 0 l 350 43 l 57 43 l 57 447 l 308 447 l 308 490 l 57 490 l 57 893 l 350 893 l 350 936 z m 186 1038 l 117 1121 l 64 1121 l 158 1006 l 214 1006 l 308 1121 l 256 1121 z "},"ė":{"ha":421,"x_min":0,"x_max":0,"o":"m 14 936 l 14 0 l 350 0 l 350 43 l 57 43 l 57 447 l 308 447 l 308 490 l 57 490 l 57 893 l 350 893 l 350 936 z m 208 1054 l 164 1054 l 164 994 l 208 994 z "},"ē":{"ha":421,"x_min":0,"x_max":0,"o":"m 14 936 l 14 0 l 350 0 l 350 43 l 57 43 l 57 447 l 308 447 l 308 490 l 57 490 l 57 893 l 350 893 l 350 936 z m 303 1049 l 58 1049 l 58 1006 l 303 1006 z "},"ğ":{"ha":489,"x_min":0,"x_max":0,"o":"m 14 247 b 214 0 14 88 81 0 b 414 247 347 0 414 86 l 414 414 l 167 414 l 167 369 l 369 369 l 369 247 b 214 43 369 108 318 43 b 57 247 108 43 57 108 l 57 690 b 111 860 57 781 81 832 b 214 893 142 888 181 893 b 317 860 247 893 286 888 b 369 690 347 832 369 781 l 369 668 l 414 668 l 414 690 b 214 936 414 851 347 936 b 14 690 81 936 14 851 z "},"ĝ":{"ha":489,"x_min":0,"x_max":0,"o":"m 14 247 b 214 0 14 88 81 0 b 414 247 347 0 414 86 l 414 414 l 167 414 l 167 369 l 369 369 l 369 247 b 214 43 369 108 318 43 b 57 247 108 43 57 108 l 57 690 b 111 860 57 781 81 832 b 214 893 142 888 181 893 b 317 860 247 893 286 888 b 369 690 347 832 369 781 l 369 668 l 414 668 l 414 690 b 214 936 414 851 347 936 b 14 690 81 936 14 851 z m 203 1049 b 125 1104 129 1049 125 1078 l 75 1104 b 203 1006 75 1014 174 1006 b 331 1104 232 1006 331 1014 l 281 1104 b 203 1049 281 1078 276 1049 z "},"ģ":{"ha":489,"x_min":0,"x_max":0,"o":"m 14 247 b 214 0 14 88 81 0 b 414 247 347 0 414 86 l 414 414 l 167 414 l 167 369 l 369 369 l 369 247 b 214 43 369 108 318 43 b 57 247 108 43 57 108 l 57 690 b 111 860 57 781 81 832 b 214 893 142 888 181 893 b 317 860 247 893 286 888 b 369 690 347 832 369 781 l 369 668 l 414 668 l 414 690 b 214 936 414 851 347 936 b 14 690 81 936 14 851 z m 83 1006 l 136 1006 l 206 1088 l 275 1006 l 328 1006 l 233 1121 l 178 1121 z "},"ġ":{"ha":489,"x_min":0,"x_max":0,"o":"m 14 247 b 214 0 14 88 81 0 b 414 247 347 0 414 86 l 414 414 l 167 414 l 167 369 l 369 369 l 369 247 b 214 43 369 108 318 43 b 57 247 108 43 57 108 l 57 690 b 111 860 57 781 81 832 b 214 893 142 888 181 893 b 317 860 247 893 286 888 b 369 690 347 832 369 781 l 369 668 l 414 668 l 414 690 b 214 936 414 851 347 936 b 14 690 81 936 14 851 z m 247 -65 l 204 -65 l 204 -181 l 247 -181 z "},"ĥ":{"ha":478,"x_min":0,"x_max":0,"o":"m 58 489 l 58 936 l 14 936 l 14 0 l 58 0 l 58 446 l 342 446 l 342 0 l 386 0 l 386 936 l 342 936 l 342 489 z m 72 1006 l 125 1006 l 194 1088 l 264 1006 l 317 1006 l 222 1121 l 167 1121 z "},"ĭ":{"ha":151,"x_min":0,"x_max":0,"o":"m 61 936 l 18 936 l 18 0 l 61 0 z m 39 1049 b -39 1104 -35 1049 -39 1078 l -89 1104 b 39 1006 -89 1014 10 1006 b 167 1104 68 1006 167 1014 l 117 1104 b 39 1049 117 1078 113 1049 z "},"ī":{"ha":151,"x_min":0,"x_max":0,"o":"m 61 936 l 18 936 l 18 0 l 61 0 z m 161 1049 l -83 1049 l -83 1006 l 161 1006 z "},"ĩ":{"ha":151,"x_min":0,"x_max":0,"o":"m 61 936 l 18 936 l 18 0 l 61 0 z m -90 1003 b 33 1013 -50 1063 3 1044 b 229 1058 71 974 182 954 l 172 1058 b 46 1058 150 1003 81 1021 b -147 1003 7 1100 -92 1113 z "},"ĵ":{"ha":450,"x_min":0,"x_max":0,"o":"m 0 229 b 186 0 0 78 63 0 b 371 229 310 0 371 78 l 371 936 l 328 936 l 328 229 b 186 43 328 101 279 43 b 92 74 154 43 119 47 b 43 229 64 100 43 146 l 43 250 l 0 250 z m 226 1006 l 279 1006 l 349 1088 l 418 1006 l 471 1006 l 376 1121 l 321 1121 z "},"ķ":{"ha":469,"x_min":0,"x_max":0,"o":"m 56 404 l 56 936 l 11 936 l 11 0 l 56 0 l 56 325 l 133 443 l 386 0 l 436 0 l 158 489 l 436 936 l 383 936 z m 232 -65 l 189 -65 l 189 -181 l 232 -181 z "},"ĺ":{"ha":396,"x_min":0,"x_max":0,"o":"m 336 43 l 50 43 l 50 936 l 6 936 l 6 0 l 336 0 z m 150 1121 l 83 1121 l -83 1006 l -17 1006 z "},"ľ":{"ha":396,"x_min":0,"x_max":0,"o":"m 29 1038 l -40 1121 l -93 1121 l 1 1006 l 57 1006 l 151 1121 l 99 1121 z m 336 43 l 50 43 l 50 936 l 6 936 l 6 0 l 336 0 z "},"ļ":{"ha":396,"x_min":0,"x_max":0,"o":"m 336 43 l 50 43 l 50 936 l 6 936 l 6 0 l 336 0 z m 189 -65 l 146 -65 l 146 -181 l 189 -181 z "},"ń":{"ha":500,"x_min":0,"x_max":0,"o":"m 417 0 l 417 936 l 372 936 l 372 135 l 50 936 l 13 936 l 13 0 l 57 0 l 57 801 l 381 0 z m 319 1121 l 253 1121 l 86 1006 l 153 1006 z "},"ň":{"ha":500,"x_min":0,"x_max":0,"o":"m 417 0 l 417 936 l 372 936 l 372 135 l 50 936 l 13 936 l 13 0 l 57 0 l 57 801 l 381 0 z m 208 1038 l 139 1121 l 86 1121 l 181 1006 l 236 1006 l 331 1121 l 278 1121 z "},"ņ":{"ha":500,"x_min":0,"x_max":0,"o":"m 417 0 l 417 936 l 372 936 l 372 135 l 50 936 l 13 936 l 13 0 l 57 0 l 57 801 l 381 0 z m 253 -65 l 210 -65 l 210 -181 l 253 -181 z "},"ŏ":{"ha":494,"x_min":0,"x_max":0,"o":"m 14 249 b 79 47 14 144 40 85 b 213 0 118 10 168 0 b 347 47 258 0 308 10 b 413 249 386 85 413 144 l 413 689 b 213 936 413 850 346 936 b 14 689 81 936 14 849 z m 57 689 b 213 893 57 828 107 893 b 368 689 317 893 368 832 l 368 249 b 213 43 368 104 314 43 b 57 249 108 43 57 108 z m 206 1049 b 128 1104 132 1049 128 1078 l 78 1104 b 206 1006 78 1014 176 1006 b 333 1104 235 1006 333 1014 l 283 1104 b 206 1049 283 1078 279 1049 z "},"ō":{"ha":494,"x_min":0,"x_max":0,"o":"m 14 249 b 79 47 14 144 40 85 b 213 0 118 10 168 0 b 347 47 258 0 308 10 b 413 249 386 85 413 144 l 413 689 b 213 936 413 850 346 936 b 14 689 81 936 14 849 z m 57 689 b 213 893 57 828 107 893 b 368 689 317 893 368 832 l 368 249 b 213 43 368 104 314 43 b 57 249 108 43 57 108 z m 325 1049 l 81 1049 l 81 1006 l 325 1006 z "},"ǿ":{"ha":494,"x_min":0,"x_max":0,"o":"m 14 249 b 79 47 14 144 40 85 b 213 0 118 10 168 0 b 347 47 258 0 308 10 b 413 249 386 85 413 144 l 413 689 b 213 936 413 850 346 936 b 14 689 81 936 14 849 z m 57 689 b 213 893 57 828 107 893 b 368 689 317 893 368 832 l 368 249 b 213 43 368 104 314 43 b 57 249 108 43 57 108 z m 63 0 l 438 936 l 390 936 l 15 0 z "},"ŕ":{"ha":483,"x_min":0,"x_max":0,"o":"m 403 261 b 340 426 403 332 382 386 b 293 460 326 440 311 451 b 363 503 315 471 347 485 b 414 689 397 543 414 606 b 211 938 414 860 361 938 l 15 938 l 15 1 l 58 1 l 58 439 l 183 439 b 358 261 294 439 358 374 l 358 1 l 403 1 z m 58 893 l 211 893 b 371 689 335 893 371 835 b 183 483 371 544 307 483 l 58 483 z m 315 1121 l 249 1121 l 82 1006 l 149 1006 z "},"ř":{"ha":483,"x_min":0,"x_max":0,"o":"m 403 261 b 340 426 403 332 382 386 b 293 460 326 440 311 451 b 363 503 315 471 347 485 b 414 689 397 543 414 606 b 211 938 414 860 361 938 l 15 938 l 15 1 l 58 1 l 58 439 l 183 439 b 358 261 294 439 358 374 l 358 1 l 403 1 z m 58 893 l 211 893 b 371 689 335 893 371 835 b 183 483 371 544 307 483 l 58 483 z m 182 1038 l 113 1121 l 60 1121 l 154 1006 l 210 1006 l 304 1121 l 251 1121 z "},"ŗ":{"ha":483,"x_min":0,"x_max":0,"o":"m 403 261 b 340 426 403 332 382 386 b 293 460 326 440 311 451 b 363 503 315 471 347 485 b 414 689 397 543 414 606 b 211 938 414 860 361 938 l 15 938 l 15 1 l 58 1 l 58 439 l 183 439 b 358 261 294 439 358 374 l 358 1 l 403 1 z m 58 893 l 211 893 b 371 689 335 893 371 835 b 183 483 371 544 307 483 l 58 483 z m 226 -65 l 183 -65 l 183 -181 l 226 -181 z "},"ś":{"ha":483,"x_min":0,"x_max":0,"o":"m 14 249 b 214 1 14 83 81 1 b 415 214 343 1 415 75 b 57 721 415 454 57 499 b 214 893 57 842 114 893 b 371 689 319 893 371 829 l 371 667 l 415 667 l 415 689 b 214 938 415 850 346 938 b 14 717 86 938 14 857 b 371 210 14 475 371 418 b 214 44 371 86 314 44 b 111 78 181 44 142 50 b 57 249 81 106 57 156 l 57 269 l 14 269 z m 319 1121 l 253 1121 l 86 1006 l 153 1006 z "},"ş":{"ha":483,"x_min":0,"x_max":0,"o":"m 14 249 b 214 1 14 83 81 1 b 415 214 343 1 415 75 b 57 721 415 454 57 499 b 214 893 57 842 114 893 b 371 689 319 893 371 829 l 371 667 l 415 667 l 415 689 b 214 938 415 850 346 938 b 14 717 86 938 14 857 b 371 210 14 475 371 418 b 214 44 371 86 314 44 b 111 78 181 44 142 50 b 57 249 81 106 57 156 l 57 269 l 14 269 z m 231 10 l 190 10 l 190 -104 b 300 -143 254 -104 311 -101 b 139 -168 283 -204 139 -168 l 139 -201 b 343 -137 139 -217 343 -251 b 231 -65 343 -57 231 -65 z "},"ŝ":{"ha":483,"x_min":0,"x_max":0,"o":"m 14 249 b 214 1 14 83 81 1 b 415 214 343 1 415 75 b 57 721 415 454 57 499 b 214 893 57 842 114 893 b 371 689 319 893 371 829 l 371 667 l 415 667 l 415 689 b 214 938 415 850 346 938 b 14 717 86 938 14 857 b 371 210 14 475 371 418 b 214 44 371 86 314 44 b 111 78 181 44 142 50 b 57 249 81 106 57 156 l 57 269 l 14 269 z m 88 1006 l 140 1006 l 210 1088 l 279 1006 l 332 1006 l 238 1121 l 182 1121 z "},"ť":{"ha":488,"x_min":0,"x_max":0,"o":"m 7 893 l 189 893 l 189 1 l 232 1 l 232 893 l 415 893 l 415 938 l 7 938 z m 214 1038 l 144 1121 l 92 1121 l 186 1006 l 242 1006 l 336 1121 l 283 1121 z "},"ţ":{"ha":488,"x_min":0,"x_max":0,"o":"m 7 893 l 189 893 l 189 1 l 232 1 l 232 893 l 415 893 l 415 938 l 7 938 z m 233 -65 l 190 -65 l 190 -181 l 233 -181 z "},"ŭ":{"ha":499,"x_min":0,"x_max":0,"o":"m 3 231 b 203 1 3 97 57 1 b 401 231 343 1 401 90 l 401 938 l 358 938 l 358 231 b 203 44 358 124 326 44 b 46 231 85 44 46 113 l 46 938 l 3 938 z m 199 1049 b 121 1104 125 1049 121 1078 l 71 1104 b 199 1006 71 1014 169 1006 b 326 1104 228 1006 326 1014 l 276 1104 b 199 1049 276 1078 272 1049 z "},"ū":{"ha":499,"x_min":0,"x_max":0,"o":"m 3 231 b 203 1 3 97 57 1 b 401 231 343 1 401 90 l 401 938 l 358 938 l 358 231 b 203 44 358 124 326 44 b 46 231 85 44 46 113 l 46 938 l 3 938 z m 326 1049 l 82 1049 l 82 1006 l 326 1006 z "},"ů":{"ha":499,"x_min":0,"x_max":0,"o":"m 3 938 l 46 938 l 46 231 b 203 44 46 113 85 44 b 358 231 326 44 358 124 l 358 938 l 401 938 l 401 231 b 203 1 401 90 343 1 b 3 231 57 1 3 97 z m 136 1061 b 197 1000 136 1028 164 1000 b 258 1061 231 1000 258 1028 b 197 1122 258 1094 231 1122 b 136 1061 164 1122 136 1094 z m 174 1061 b 196 1083 174 1074 183 1083 b 218 1061 208 1083 218 1074 b 196 1039 218 1049 208 1039 b 174 1061 183 1039 174 1049 z "},"ũ":{"ha":499,"x_min":0,"x_max":0,"o":"m 3 231 b 203 1 3 97 57 1 b 401 231 343 1 401 90 l 401 938 l 358 938 l 358 231 b 203 44 358 124 326 44 b 46 231 85 44 46 113 l 46 938 l 3 938 z m 71 1003 b 194 1013 111 1063 164 1044 b 390 1058 232 974 343 954 l 333 1058 b 207 1058 311 1003 242 1021 b 14 1003 168 1100 69 1113 z "},"ẃ":{"ha":708,"x_min":0,"x_max":0,"o":"m 342 936 l 307 936 l 169 124 l 44 936 l 0 936 l 151 0 l 186 0 l 324 813 l 461 0 l 497 0 l 646 936 l 600 936 l 479 124 z m 440 1121 l 374 1121 l 207 1006 l 274 1006 z "},"ŵ":{"ha":708,"x_min":0,"x_max":0,"o":"m 342 936 l 307 936 l 169 124 l 44 936 l 0 936 l 151 0 l 186 0 l 324 813 l 461 0 l 497 0 l 646 936 l 600 936 l 479 124 z m 203 1006 l 256 1006 l 325 1088 l 394 1006 l 447 1006 l 353 1121 l 297 1121 z "},"ẅ":{"ha":708,"x_min":0,"x_max":0,"o":"m 342 936 l 307 936 l 169 124 l 44 936 l 0 936 l 151 0 l 186 0 l 324 813 l 461 0 l 497 0 l 646 936 l 600 936 l 479 124 z m 244 1065 l 200 1065 l 200 1006 l 244 1006 z m 449 1065 l 404 1065 l 404 1006 l 449 1006 z "},"ẁ":{"ha":708,"x_min":0,"x_max":0,"o":"m 342 936 l 307 936 l 169 124 l 44 936 l 0 936 l 151 0 l 186 0 l 324 813 l 461 0 l 497 0 l 646 936 l 600 936 l 479 124 z m 374 1006 l 440 1006 l 274 1121 l 207 1121 z "},"ŷ":{"ha":494,"x_min":0,"x_max":0,"o":"m 36 936 l -14 936 l 192 463 l 192 0 l 235 0 l 235 463 l 439 936 l 389 936 l 213 532 z m 90 1006 l 143 1006 l 213 1088 l 282 1006 l 335 1006 l 240 1121 l 185 1121 z "},"ỳ":{"ha":494,"x_min":0,"x_max":0,"o":"m 36 936 l -14 936 l 192 463 l 192 0 l 235 0 l 235 463 l 439 936 l 389 936 l 213 532 z m 263 1006 l 329 1006 l 163 1121 l 96 1121 z "},"ź":{"ha":501,"x_min":0,"x_max":0,"o":"m 414 936 l 0 936 l 0 893 l 364 893 l 7 43 l 7 0 l 407 0 l 407 43 l 56 43 l 414 896 z m 328 1121 l 261 1121 l 94 1006 l 161 1006 z "},"ž":{"ha":513,"x_min":0,"x_max":0,"o":"m 414 936 l 0 936 l 0 893 l 364 893 l 7 43 l 7 0 l 407 0 l 407 43 l 56 43 l 414 896 z m 200 1038 l 131 1121 l 78 1121 l 172 1006 l 228 1006 l 322 1121 l 269 1121 z "},"ż":{"ha":501,"x_min":0,"x_max":0,"o":"m 414 936 l 0 936 l 0 893 l 364 893 l 7 43 l 7 0 l 407 0 l 407 43 l 56 43 l 414 896 z m 222 1054 l 178 1054 l 178 994 l 222 994 z "},"þ":{"ha":467,"x_min":0,"x_max":0,"o":"m 47 271 l 231 271 b 467 472 386 271 467 356 b 231 674 467 590 390 674 l 47 674 l 47 936 l 4 936 l 4 0 l 47 0 z m 47 631 l 231 631 b 424 472 368 631 424 560 b 231 315 424 386 368 315 l 47 315 z "},"×":{"ha":339,"x_min":0,"x_max":0,"o":"m 11 581 l 115 476 l 11 372 l 42 342 l 146 446 l 250 342 l 281 372 l 176 476 l 281 581 l 250 611 l 146 507 l 42 611 z "},"÷":{"ha":157,"x_min":0,"x_max":0,"o":"m 63 714 l 19 714 l 19 608 l 63 608 z m 19 332 l 19 226 l 63 226 l 63 332 z "},"€":{"ha":444,"x_min":0,"x_max":0,"o":"m 308 336 l 83 336 l 83 543 l 308 543 l 308 586 l 83 586 l 83 689 b 253 893 83 792 126 893 b 383 838 358 893 383 838 l 413 871 b 253 936 413 871 374 936 b 39 689 161 936 39 893 l 39 586 l -44 586 l -44 543 l 39 543 l 39 336 l -44 336 l -44 293 l 39 293 l 39 249 b 253 0 39 43 161 0 b 424 82 374 0 424 82 l 383 111 b 253 43 383 111 347 43 b 83 249 132 43 83 138 l 83 293 l 308 293 z "},"ß":{"ha":453,"x_min":0,"x_max":0,"o":"m 44 643 b 178 893 44 861 118 893 b 318 707 293 893 318 819 b 167 490 318 565 261 490 l 167 447 b 367 240 253 447 367 401 b 176 43 367 81 292 43 l 167 43 l 167 0 l 176 0 b 411 240 317 0 411 51 b 238 471 411 383 329 456 b 363 707 297 478 363 556 b 181 936 363 840 319 936 b 0 658 146 936 -6 935 l 0 0 l 44 0 z "},"©":{"ha":915,"x_min":0,"x_max":0,"o":"m 17 472 b 442 4 17 214 182 4 b 869 472 701 4 869 214 b 442 940 869 731 701 940 b 17 472 182 940 17 731 z m 57 472 b 442 899 57 708 204 899 b 829 472 678 899 829 708 b 442 43 829 235 678 43 b 57 472 204 43 57 235 z m 581 343 l 539 343 l 539 317 b 439 193 539 256 510 193 b 339 317 368 193 339 250 l 339 621 b 439 743 339 682 365 743 b 539 621 510 743 539 686 l 539 593 l 581 593 l 581 621 b 439 783 581 756 499 783 b 297 621 378 783 297 756 l 297 317 b 439 153 297 181 378 153 b 581 317 499 153 581 181 z "},"®":{"ha":935,"x_min":0,"x_max":0,"o":"m 17 472 b 442 4 17 214 182 4 b 869 472 701 4 869 214 b 442 940 869 731 701 940 b 17 472 182 940 17 731 z m 57 472 b 442 899 57 708 204 899 b 829 472 678 899 829 708 b 442 43 829 235 678 43 b 57 472 204 43 57 235 z m 340 779 l 340 197 l 378 197 l 378 469 l 440 469 b 524 397 497 469 524 453 l 524 197 l 563 197 l 563 401 b 518 489 563 435 554 472 b 565 636 554 511 565 575 b 447 779 565 733 535 779 z m 378 507 l 378 740 l 440 740 b 528 636 503 740 528 710 b 440 507 528 565 508 507 z "},"™":{"ha":511,"x_min":0,"x_max":0,"o":"m -7 893 l 78 893 l 78 672 l 121 672 l 121 893 l 207 893 l 207 938 l -7 938 z m 357 672 l 393 800 l 393 672 l 438 672 l 438 936 l 390 936 l 340 760 l 289 936 l 243 936 l 243 672 l 286 672 l 286 800 l 324 672 z "}}}
